<svg xmlns="http://www.w3.org/2000/svg" viewBox="0 0 1920 1080" width="1920" height="1080"><defs><linearGradient id="sky" x1="0" y1="0" x2="0" y2="1"><stop offset="0" stop-color="#6090b8"></stop><stop offset="0.6" stop-color="#7eaac8"></stop><stop offset="1" stop-color="#a8c8dc"></stop></linearGradient></defs><rect width="1920" height="1080" fill="url(#sky)"></rect><path d="M514.2,138.0 L450.9,159.1 L392.0,169.5 L323.2,174.2 L235.2,167.0 L236.3,138.0 L267.7,116.5 L313.9,92.6 L407.0,91.6 L442.7,118.8 L492.7,138.0 Z" fill="#ccdde6"></path><path d="M512.9,128.0 L480.3,154.2 L394.2,159.5 L314.7,169.9 L275.4,146.4 L255.6,128.0 L257.9,105.8 L328.6,99.0 L395.7,95.1 L446.1,109.2 L499.7,128.0 Z" fill="#eef2f4"></path><path d="M1095.2,100.0 L1078.6,122.9 L1015.2,134.7 L951.0,128.6 L884.3,122.3 L893.0,100.0 L897.0,80.7 L954.2,74.6 L1011.5,69.0 L1061.7,81.0 L1063.9,100.0 Z" fill="#ccdde6"></path><path d="M1064.5,90.0 L1046.5,104.5 L1010.8,118.4 L953.3,114.7 L912.2,104.8 L898.3,90.0 L899.3,72.4 L949.6,61.9 L1011.7,60.7 L1045.5,75.7 L1080.8,90.0 Z" fill="#eef2f4"></path><path d="M1777.8,148.0 L1700.6,171.4 L1637.3,184.7 L1558.2,189.1 L1505.2,170.0 L1452.8,148.0 L1461.9,115.9 L1556.4,105.0 L1641.3,107.3 L1741.5,115.1 L1750.5,148.0 Z" fill="#ccdde6"></path><path d="M1719.1,138.0 L1694.9,158.7 L1645.2,179.7 L1554.9,179.7 L1489.6,162.1 L1430.7,138.0 L1508.5,118.1 L1553.9,95.4 L1637.7,103.2 L1701.6,115.8 L1717.5,138.0 Z" fill="#eef2f4"></path><path d="M0,600 L0,444.9 C24.0,444.9 36.0,491.8 60.0,491.8 C84.0,491.8 96.0,501.6 120.0,501.6 C144.0,501.6 156.0,484.3 180.0,484.3 C204.0,484.3 216.0,444.8 240.0,444.8 C264.0,444.8 276.0,479.0 300.0,479.0 C324.0,479.0 336.0,489.8 360.0,489.8 C384.0,489.8 396.0,450.5 420.0,450.5 C444.0,450.5 456.0,447.0 480.0,447.0 C504.0,447.0 516.0,503.1 540.0,503.1 C564.0,503.1 576.0,469.0 600.0,469.0 C624.0,469.0 636.0,470.3 660.0,470.3 C684.0,470.3 696.0,465.9 720.0,465.9 C744.0,465.9 756.0,488.3 780.0,488.3 C804.0,488.3 816.0,502.6 840.0,502.6 C864.0,502.6 876.0,462.3 900.0,462.3 C924.0,462.3 936.0,488.5 960.0,488.5 C984.0,488.5 996.0,450.4 1020.0,450.4 C1044.0,450.4 1056.0,456.9 1080.0,456.9 C1104.0,456.9 1116.0,503.9 1140.0,503.9 C1164.0,503.9 1176.0,452.4 1200.0,452.4 C1224.0,452.4 1236.0,492.5 1260.0,492.5 C1284.0,492.5 1296.0,493.9 1320.0,493.9 C1344.0,493.9 1356.0,487.9 1380.0,487.9 C1404.0,487.9 1416.0,462.8 1440.0,462.8 C1464.0,462.8 1476.0,486.0 1500.0,486.0 C1524.0,486.0 1536.0,441.4 1560.0,441.4 C1584.0,441.4 1596.0,451.9 1620.0,451.9 C1644.0,451.9 1656.0,473.0 1680.0,473.0 C1704.0,473.0 1716.0,492.7 1740.0,492.7 C1764.0,492.7 1776.0,499.0 1800.0,499.0 C1824.0,499.0 1836.0,503.4 1860.0,503.4 C1884.0,503.4 1896.0,464.8 1920.0,464.8 L1920,600 L1920,1080 L0,1080 Z" fill="#2a3e28"></path><path d="M0,630 L0,434.7 C19.2,434.7 28.8,440.6 48.0,440.6 C67.2,440.6 76.8,494.8 96.0,494.8 C115.2,494.8 124.8,443.4 144.0,443.4 C163.2,443.4 172.8,503.3 192.0,503.3 C211.2,503.3 220.8,503.5 240.0,503.5 C259.2,503.5 268.8,472.6 288.0,472.6 C307.2,472.6 316.8,507.4 336.0,507.4 C355.2,507.4 364.8,487.9 384.0,487.9 C403.2,487.9 412.8,500.7 432.0,500.7 C451.2,500.7 460.8,453.4 480.0,453.4 C499.2,453.4 508.8,505.9 528.0,505.9 C547.2,505.9 556.8,503.4 576.0,503.4 C595.2,503.4 604.8,443.1 624.0,443.1 C643.2,443.1 652.8,440.4 672.0,440.4 C691.2,440.4 700.8,453.6 720.0,453.6 C739.2,453.6 748.8,433.8 768.0,433.8 C787.2,433.8 796.8,430.2 816.0,430.2 C835.2,430.2 844.8,467.2 864.0,467.2 C883.2,467.2 892.8,470.0 912.0,470.0 C931.2,470.0 940.8,487.8 960.0,487.8 C979.2,487.8 988.8,453.1 1008.0,453.1 C1027.2,453.1 1036.8,441.1 1056.0,441.1 C1075.2,441.1 1084.8,452.0 1104.0,452.0 C1123.2,452.0 1132.8,492.9 1152.0,492.9 C1171.2,492.9 1180.8,470.7 1200.0,470.7 C1219.2,470.7 1228.8,460.6 1248.0,460.6 C1267.2,460.6 1276.8,432.1 1296.0,432.1 C1315.2,432.1 1324.8,440.1 1344.0,440.1 C1363.2,440.1 1372.8,443.3 1392.0,443.3 C1411.2,443.3 1420.8,490.7 1440.0,490.7 C1459.2,490.7 1468.8,450.7 1488.0,450.7 C1507.2,450.7 1516.8,481.5 1536.0,481.5 C1555.2,481.5 1564.8,454.1 1584.0,454.1 C1603.2,454.1 1612.8,468.3 1632.0,468.3 C1651.2,468.3 1660.8,505.1 1680.0,505.1 C1699.2,505.1 1708.8,488.6 1728.0,488.6 C1747.2,488.6 1756.8,445.2 1776.0,445.2 C1795.2,445.2 1804.8,449.2 1824.0,449.2 C1843.2,449.2 1852.8,479.3 1872.0,479.3 C1891.2,479.3 1900.8,481.8 1920.0,481.8 L1920,630 L1920,1080 L0,1080 Z" fill="#304836"></path><path d="M0,660 L0,434.8 C16.0,434.8 24.0,420.2 40.0,420.2 C56.0,420.2 64.0,437.4 80.0,437.4 C96.0,437.4 104.0,481.1 120.0,481.1 C136.0,481.1 144.0,428.1 160.0,428.1 C176.0,428.1 184.0,496.4 200.0,496.4 C216.0,496.4 224.0,462.5 240.0,462.5 C256.0,462.5 264.0,504.3 280.0,504.3 C296.0,504.3 304.0,464.0 320.0,464.0 C336.0,464.0 344.0,465.8 360.0,465.8 C376.0,465.8 384.0,503.2 400.0,503.2 C416.0,503.2 424.0,429.4 440.0,429.4 C456.0,429.4 464.0,424.0 480.0,424.0 C496.0,424.0 504.0,476.8 520.0,476.8 C536.0,476.8 544.0,501.2 560.0,501.2 C576.0,501.2 584.0,457.5 600.0,457.5 C616.0,457.5 624.0,490.1 640.0,490.1 C656.0,490.1 664.0,487.5 680.0,487.5 C696.0,487.5 704.0,496.1 720.0,496.1 C736.0,496.1 744.0,502.1 760.0,502.1 C776.0,502.1 784.0,425.1 800.0,425.1 C816.0,425.1 824.0,510.4 840.0,510.4 C856.0,510.4 864.0,433.6 880.0,433.6 C896.0,433.6 904.0,506.5 920.0,506.5 C936.0,506.5 944.0,468.8 960.0,468.8 C976.0,468.8 984.0,444.5 1000.0,444.5 C1016.0,444.5 1024.0,460.9 1040.0,460.9 C1056.0,460.9 1064.0,457.2 1080.0,457.2 C1096.0,457.2 1104.0,458.9 1120.0,458.9 C1136.0,458.9 1144.0,431.5 1160.0,431.5 C1176.0,431.5 1184.0,427.8 1200.0,427.8 C1216.0,427.8 1224.0,449.6 1240.0,449.6 C1256.0,449.6 1264.0,437.6 1280.0,437.6 C1296.0,437.6 1304.0,451.2 1320.0,451.2 C1336.0,451.2 1344.0,483.1 1360.0,483.1 C1376.0,483.1 1384.0,507.6 1400.0,507.6 C1416.0,507.6 1424.0,433.9 1440.0,433.9 C1456.0,433.9 1464.0,466.7 1480.0,466.7 C1496.0,466.7 1504.0,505.2 1520.0,505.2 C1536.0,505.2 1544.0,482.2 1560.0,482.2 C1576.0,482.2 1584.0,494.0 1600.0,494.0 C1616.0,494.0 1624.0,468.7 1640.0,468.7 C1656.0,468.7 1664.0,455.4 1680.0,455.4 C1696.0,455.4 1704.0,421.3 1720.0,421.3 C1736.0,421.3 1744.0,457.8 1760.0,457.8 C1776.0,457.8 1784.0,421.0 1800.0,421.0 C1816.0,421.0 1824.0,489.8 1840.0,489.8 C1856.0,489.8 1864.0,515.7 1880.0,515.7 C1896.0,515.7 1904.0,479.6 1920.0,479.6 L1920,660 L1920,1080 L0,1080 Z" fill="#243628"></path><path d="M0,690 L0,494.4 C13.7,494.4 20.6,500.5 34.3,500.5 C48.0,500.5 54.9,453.9 68.6,453.9 C82.3,453.9 89.1,489.1 102.9,489.1 C116.6,489.1 123.4,496.1 137.1,496.1 C150.9,496.1 157.7,501.8 171.4,501.8 C185.1,501.8 192.0,453.3 205.7,453.3 C219.4,453.3 226.3,456.9 240.0,456.9 C253.7,456.9 260.6,445.8 274.3,445.8 C288.0,445.8 294.9,503.9 308.6,503.9 C322.3,503.9 329.1,450.5 342.9,450.5 C356.6,450.5 363.4,488.5 377.1,488.5 C390.9,488.5 397.7,474.0 411.4,474.0 C425.1,474.0 432.0,497.1 445.7,497.1 C459.4,497.1 466.3,427.7 480.0,427.7 C493.7,427.7 500.6,512.7 514.3,512.7 C528.0,512.7 534.9,515.0 548.6,515.0 C562.3,515.0 569.1,460.0 582.9,460.0 C596.6,460.0 603.4,507.8 617.1,507.8 C630.9,507.8 637.7,420.9 651.4,420.9 C665.1,420.9 672.0,438.5 685.7,438.5 C699.4,438.5 706.3,507.0 720.0,507.0 C733.7,507.0 740.6,466.2 754.3,466.2 C768.0,466.2 774.9,427.8 788.6,427.8 C802.3,427.8 809.1,493.8 822.9,493.8 C836.6,493.8 843.4,441.7 857.1,441.7 C870.9,441.7 877.7,490.9 891.4,490.9 C905.1,490.9 912.0,405.6 925.7,405.6 C939.4,405.6 946.3,472.1 960.0,472.1 C973.7,472.1 980.6,418.0 994.3,418.0 C1008.0,418.0 1014.9,418.4 1028.6,418.4 C1042.3,418.4 1049.1,458.0 1062.9,458.0 C1076.6,458.0 1083.4,416.0 1097.1,416.0 C1110.9,416.0 1117.7,480.4 1131.4,480.4 C1145.1,480.4 1152.0,484.9 1165.7,484.9 C1179.4,484.9 1186.3,416.1 1200.0,416.1 C1213.7,416.1 1220.6,486.3 1234.3,486.3 C1248.0,486.3 1254.9,414.0 1268.6,414.0 C1282.3,414.0 1289.1,479.3 1302.9,479.3 C1316.6,479.3 1323.4,462.5 1337.1,462.5 C1350.9,462.5 1357.7,404.3 1371.4,404.3 C1385.1,404.3 1392.0,441.2 1405.7,441.2 C1419.4,441.2 1426.3,453.7 1440.0,453.7 C1453.7,453.7 1460.6,473.9 1474.3,473.9 C1488.0,473.9 1494.9,457.1 1508.6,457.1 C1522.3,457.1 1529.1,450.2 1542.9,450.2 C1556.6,450.2 1563.4,424.6 1577.1,424.6 C1590.9,424.6 1597.7,412.3 1611.4,412.3 C1625.1,412.3 1632.0,464.1 1645.7,464.1 C1659.4,464.1 1666.3,416.9 1680.0,416.9 C1693.7,416.9 1700.6,432.0 1714.3,432.0 C1728.0,432.0 1734.9,478.1 1748.6,478.1 C1762.3,478.1 1769.1,472.4 1782.9,472.4 C1796.6,472.4 1803.4,489.3 1817.1,489.3 C1830.9,489.3 1837.7,505.9 1851.4,505.9 C1865.1,505.9 1872.0,497.3 1885.7,497.3 C1899.4,497.3 1906.3,479.5 1920.0,479.5 L1920,690 L1920,1080 L0,1080 Z" fill="#1e3020"></path><path d="M0,640 L1920,640 L1920,1080 L0,1080 Z" fill="#5e7035"></path><path d="M0,750 C560,728 1400,732 1920,758 L1920,1080 L0,1080 Z" fill="#6e8244"></path><path d="M0,910 C600,886 1380,892 1920,922 L1920,1080 L0,1080 Z" fill="#809050"></path><path d="M580,710 C650,698 1270,698 1360,712 C1510,750 1540,875 1478,968 C1300,972 620,972 442,968 C380,875 420,748 580,710 Z" fill="#6a5c3c"></path><path d="M660,730 C720,716 1200,716 1264,730 C1390,768 1410,872 1350,946 C1180,950 640,950 490,943 C460,870 520,760 660,730 Z" fill="#504430" opacity="0.72"></path><path d="M932,946 C938,868 956,770 966,700 L1002,700 C1010,770 1024,868 1032,946 C1012,952 952,952 932,946 Z" fill="#8a7c5a"></path><path d="M582,938 C608,898 618,842 638,800 C648,778 658,758 648,728 C628,743 598,788 578,840 C556,878 544,918 558,953 Z" fill="#7e7050" opacity="0.55"></path><path d="M1342,938 C1322,898 1312,842 1312,790 C1322,758 1342,738 1362,728 C1372,753 1362,800 1357,840 C1350,878 1347,918 1357,953 Z" fill="#7e7050" opacity="0.5"></path><path d="M1262.5,905.8 L1256.7,912.0 L1246.3,918.5 L1226.8,918.5 L1216.7,911.9 L1202.1,905.8 L1209.6,897.6 L1228.6,895.6 L1243.8,896.5 L1259.7,898.8 L1261.7,905.8 Z" fill="#3c3020"></path><path d="M1386.4,820.3 L1380.4,827.1 L1367.0,831.7 L1349.6,831.4 L1338.7,826.2 L1335.6,820.3 L1336.6,813.7 L1349.8,809.5 L1367.0,808.8 L1378.0,814.3 L1383.1,820.3 Z" fill="#3c3020"></path><path d="M1238.3,924.2 L1234.8,930.3 L1221.9,933.6 L1208.3,932.2 L1195.1,930.1 L1194.4,924.2 L1198.7,919.3 L1207.1,914.4 L1221.0,915.8 L1237.5,917.2 L1239.8,924.2 Z" fill="#3c3020"></path><path d="M866.9,790.4 L863.1,794.1 L856.5,797.9 L845.6,796.9 L835.0,795.1 L830.0,790.4 L834.2,785.3 L844.5,782.3 L854.9,784.9 L866.6,785.5 L866.8,790.4 Z" fill="#3c3020"></path><path d="M1308.2,856.8 L1302.9,859.9 L1297.7,863.4 L1288.7,861.8 L1279.5,860.8 L1276.8,856.8 L1279.8,852.9 L1287.6,850.4 L1296.9,851.1 L1302.5,853.8 L1307.1,856.8 Z" fill="#4e4028"></path><path d="M742.0,774.8 L738.2,779.4 L728.1,781.2 L719.1,780.1 L707.3,779.7 L705.5,774.8 L711.0,771.1 L717.2,767.1 L727.3,769.5 L733.9,771.6 L741.8,774.8 Z" fill="#4e4028"></path><path d="M1037.2,853.8 L1026.6,860.1 L1012.6,862.4 L996.7,865.7 L979.3,861.9 L981.6,853.8 L981.6,846.4 L998.7,844.5 L1013.8,843.5 L1025.6,847.8 L1038.5,853.8 Z" fill="#4e4028"></path><path d="M672.9,850.2 L669.2,853.9 L662.1,856.6 L651.7,857.3 L644.0,854.2 L639.9,850.2 L641.5,845.4 L651.5,842.9 L662.2,843.8 L672.4,845.6 L671.0,850.2 Z" fill="#3c3020"></path><path d="M1010.2,777.2 L1008.9,781.9 L999.5,785.3 L987.1,785.1 L972.6,783.5 L971.3,777.2 L974.1,771.3 L986.5,768.5 L1001.2,766.8 L1008.0,772.7 L1018.2,777.2 Z" fill="#4e4028"></path><path d="M998.9,921.6 L990.7,925.5 L982.8,927.9 L971.5,930.0 L961.2,926.8 L955.3,921.6 L964.4,917.5 L972.9,915.0 L983.9,914.0 L994.3,916.7 L1000.2,921.6 Z" fill="#3c3020"></path><path d="M685.5,932.2 L688.4,938.8 L673.7,940.8 L659.6,941.9 L646.1,938.7 L640.2,932.2 L647.1,926.1 L661.3,924.7 L672.9,924.7 L688.0,925.8 L693.8,932.2 Z" fill="#3c3020"></path><path d="M1297.1,828.8 L1292.4,832.0 L1287.7,836.4 L1277.2,834.7 L1271.5,831.9 L1268.3,828.8 L1268.8,824.8 L1277.3,822.9 L1286.1,823.3 L1293.8,825.1 L1295.5,828.8 Z" fill="#3c3020"></path><path d="M1346.4,781.1 L1341.9,785.6 L1333.0,788.8 L1321.9,787.6 L1315.8,784.5 L1309.9,781.1 L1314.8,777.4 L1322.9,775.8 L1332.5,773.9 L1342.2,776.4 L1345.6,781.1 Z" fill="#3c3020"></path><path d="M908.5,866.6 L903.1,871.6 L892.3,873.8 L882.2,872.4 L872.6,870.9 L865.5,866.6 L873.7,862.6 L881.1,859.4 L893.5,857.8 L904.7,861.1 L903.4,866.6 Z" fill="#3c3020"></path><path d="M712.7,802.8 L704.4,809.1 L690.7,811.8 L674.4,814.9 L666.2,808.2 L660.5,802.8 L661.2,795.9 L676.2,793.1 L693.1,790.7 L706.8,795.8 L711.6,802.8 Z" fill="#3c3020"></path><path d="M1065.9,807.9 L1059.3,811.4 L1052.0,813.5 L1041.6,815.8 L1034.5,811.9 L1030.3,807.9 L1031.8,803.0 L1042.3,800.9 L1053.3,800.6 L1062.2,803.4 L1061.7,807.9 Z" fill="#4e4028"></path><path d="M799.1,791.0 L797.8,797.6 L784.8,802.1 L768.3,801.2 L760.3,795.8 L753.2,791.0 L755.3,784.6 L767.6,779.9 L784.4,780.4 L793.8,785.6 L799.4,791.0 Z" fill="#3c3020"></path><path d="M820.4,779.2 L820.0,786.0 L803.4,786.5 L790.7,788.4 L782.4,783.9 L772.8,779.2 L778.3,773.3 L789.6,768.6 L805.3,769.6 L812.7,774.7 L821.5,779.2 Z" fill="#4e4028"></path><polygon points="658.0,510.0 1262.0,510.0 1156.0,362.0 764.0,362.0" fill="#c4a860" stroke="#18140a" stroke-width="2" stroke-linejoin="round"></polygon><polygon points="658.0,510.0 960.0,510.0 764.0,362.0 960.0,362.0" fill="#dcc070" opacity="0.25"></polygon><polygon points="960.0,510.0 1262.0,510.0 1156.0,362.0 960.0,362.0" fill="#9a8040" opacity="0.3"></polygon><line x1="667.6" y1="496.5" x2="1252.4" y2="496.5" stroke="#9a8040" stroke-width="2" opacity="0.5" stroke-linecap="round"></line><line x1="677.3" y1="483.1" x2="1242.7" y2="483.1" stroke="#9a8040" stroke-width="2" opacity="0.5" stroke-linecap="round"></line><line x1="686.9" y1="469.6" x2="1233.1" y2="469.6" stroke="#9a8040" stroke-width="2" opacity="0.5" stroke-linecap="round"></line><line x1="696.5" y1="456.2" x2="1223.5" y2="456.2" stroke="#9a8040" stroke-width="2" opacity="0.5" stroke-linecap="round"></line><line x1="706.2" y1="442.7" x2="1213.8" y2="442.7" stroke="#9a8040" stroke-width="2" opacity="0.5" stroke-linecap="round"></line><line x1="715.8" y1="429.3" x2="1204.2" y2="429.3" stroke="#9a8040" stroke-width="2" opacity="0.5" stroke-linecap="round"></line><line x1="725.5" y1="415.8" x2="1194.5" y2="415.8" stroke="#9a8040" stroke-width="2" opacity="0.5" stroke-linecap="round"></line><line x1="735.1" y1="402.4" x2="1184.9" y2="402.4" stroke="#9a8040" stroke-width="2" opacity="0.5" stroke-linecap="round"></line><line x1="744.7" y1="388.9" x2="1175.3" y2="388.9" stroke="#9a8040" stroke-width="2" opacity="0.5" stroke-linecap="round"></line><line x1="754.4" y1="375.5" x2="1165.6" y2="375.5" stroke="#9a8040" stroke-width="2" opacity="0.5" stroke-linecap="round"></line><line x1="764.0" y1="362.0" x2="658.0" y2="510.0" stroke="#382a10" stroke-width="11" opacity="1" stroke-linecap="round"></line><line x1="766.0" y1="363.0" x2="660.0" y2="511.0" stroke="#5a4020" stroke-width="3.5" opacity="0.55" stroke-linecap="round"></line><line x1="807.6" y1="362.0" x2="725.1" y2="510.0" stroke="#382a10" stroke-width="11" opacity="1" stroke-linecap="round"></line><line x1="809.6" y1="363.0" x2="727.1" y2="511.0" stroke="#5a4020" stroke-width="3.5" opacity="0.55" stroke-linecap="round"></line><line x1="851.1" y1="362.0" x2="792.2" y2="510.0" stroke="#382a10" stroke-width="11" opacity="1" stroke-linecap="round"></line><line x1="853.1" y1="363.0" x2="794.2" y2="511.0" stroke="#5a4020" stroke-width="3.5" opacity="0.55" stroke-linecap="round"></line><line x1="894.7" y1="362.0" x2="859.3" y2="510.0" stroke="#382a10" stroke-width="11" opacity="1" stroke-linecap="round"></line><line x1="896.7" y1="363.0" x2="861.3" y2="511.0" stroke="#5a4020" stroke-width="3.5" opacity="0.55" stroke-linecap="round"></line><line x1="938.2" y1="362.0" x2="926.4" y2="510.0" stroke="#382a10" stroke-width="11" opacity="1" stroke-linecap="round"></line><line x1="940.2" y1="363.0" x2="928.4" y2="511.0" stroke="#5a4020" stroke-width="3.5" opacity="0.55" stroke-linecap="round"></line><line x1="981.8" y1="362.0" x2="993.6" y2="510.0" stroke="#382a10" stroke-width="11" opacity="1" stroke-linecap="round"></line><line x1="983.8" y1="363.0" x2="995.6" y2="511.0" stroke="#5a4020" stroke-width="3.5" opacity="0.55" stroke-linecap="round"></line><line x1="1025.3" y1="362.0" x2="1060.7" y2="510.0" stroke="#382a10" stroke-width="11" opacity="1" stroke-linecap="round"></line><line x1="1027.3" y1="363.0" x2="1062.7" y2="511.0" stroke="#5a4020" stroke-width="3.5" opacity="0.55" stroke-linecap="round"></line><line x1="1068.9" y1="362.0" x2="1127.8" y2="510.0" stroke="#382a10" stroke-width="11" opacity="1" stroke-linecap="round"></line><line x1="1070.9" y1="363.0" x2="1129.8" y2="511.0" stroke="#5a4020" stroke-width="3.5" opacity="0.55" stroke-linecap="round"></line><line x1="1112.4" y1="362.0" x2="1194.9" y2="510.0" stroke="#382a10" stroke-width="11" opacity="1" stroke-linecap="round"></line><line x1="1114.4" y1="363.0" x2="1196.9" y2="511.0" stroke="#5a4020" stroke-width="3.5" opacity="0.55" stroke-linecap="round"></line><line x1="1156.0" y1="362.0" x2="1262.0" y2="510.0" stroke="#382a10" stroke-width="11" opacity="1" stroke-linecap="round"></line><line x1="1158.0" y1="363.0" x2="1264.0" y2="511.0" stroke="#5a4020" stroke-width="3.5" opacity="0.55" stroke-linecap="round"></line><line x1="764.0" y1="362.0" x2="1156.0" y2="362.0" stroke="#382a10" stroke-width="14" opacity="1" stroke-linecap="round"></line><line x1="764.0" y1="362.0" x2="1156.0" y2="362.0" stroke="#5a4020" stroke-width="4" opacity="0.6" stroke-linecap="round"></line><line x1="658.0" y1="510.0" x2="1262.0" y2="510.0" stroke="#18140a" stroke-width="2.5" opacity="1" stroke-linecap="round"></line><rect x="1128" y="383.36" width="24" height="28" fill="#706a60" stroke="#18140a" stroke-width="2"></rect><path d="M1140,383.36 c-8,-6 6,-12 -2,-20" stroke="#dce8ed" stroke-width="7" fill="none" opacity="0.38" stroke-linecap="round"></path><path d="M1140,369.36 c-8,-6 6,-12 -2,-20" stroke="#dce8ed" stroke-width="6" fill="none" opacity="0.32" stroke-linecap="round"></path><path d="M1140,355.36 c-8,-6 6,-12 -2,-20" stroke="#dce8ed" stroke-width="5" fill="none" opacity="0.26" stroke-linecap="round"></path><path d="M1140,341.36 c-8,-6 6,-12 -2,-20" stroke="#dce8ed" stroke-width="4" fill="none" opacity="0.20" stroke-linecap="round"></path><path d="M1140,327.36 c-8,-6 6,-12 -2,-20" stroke="#dce8ed" stroke-width="3" fill="none" opacity="0.14" stroke-linecap="round"></path><ellipse cx="680" cy="700" rx="13" ry="7.5" fill="#524e48" stroke="#18140a" stroke-width="1.4"></ellipse><ellipse cx="702" cy="700" rx="13" ry="7.5" fill="#706a60" stroke="#18140a" stroke-width="1.4"></ellipse><ellipse cx="724" cy="700" rx="13" ry="7.5" fill="#524e48" stroke="#18140a" stroke-width="1.4"></ellipse><ellipse cx="746" cy="700" rx="13" ry="7.5" fill="#706a60" stroke="#18140a" stroke-width="1.4"></ellipse><ellipse cx="768" cy="700" rx="13" ry="7.5" fill="#524e48" stroke="#18140a" stroke-width="1.4"></ellipse><ellipse cx="790" cy="700" rx="13" ry="7.5" fill="#706a60" stroke="#18140a" stroke-width="1.4"></ellipse><ellipse cx="812" cy="700" rx="13" ry="7.5" fill="#524e48" stroke="#18140a" stroke-width="1.4"></ellipse><ellipse cx="834" cy="700" rx="13" ry="7.5" fill="#706a60" stroke="#18140a" stroke-width="1.4"></ellipse><ellipse cx="856" cy="700" rx="13" ry="7.5" fill="#524e48" stroke="#18140a" stroke-width="1.4"></ellipse><ellipse cx="878" cy="700" rx="13" ry="7.5" fill="#706a60" stroke="#18140a" stroke-width="1.4"></ellipse><ellipse cx="900" cy="700" rx="13" ry="7.5" fill="#524e48" stroke="#18140a" stroke-width="1.4"></ellipse><ellipse cx="922" cy="700" rx="13" ry="7.5" fill="#706a60" stroke="#18140a" stroke-width="1.4"></ellipse><ellipse cx="944" cy="700" rx="13" ry="7.5" fill="#524e48" stroke="#18140a" stroke-width="1.4"></ellipse><ellipse cx="966" cy="700" rx="13" ry="7.5" fill="#706a60" stroke="#18140a" stroke-width="1.4"></ellipse><ellipse cx="988" cy="700" rx="13" ry="7.5" fill="#524e48" stroke="#18140a" stroke-width="1.4"></ellipse><ellipse cx="1010" cy="700" rx="13" ry="7.5" fill="#706a60" stroke="#18140a" stroke-width="1.4"></ellipse><ellipse cx="1032" cy="700" rx="13" ry="7.5" fill="#524e48" stroke="#18140a" stroke-width="1.4"></ellipse><ellipse cx="1054" cy="700" rx="13" ry="7.5" fill="#706a60" stroke="#18140a" stroke-width="1.4"></ellipse><ellipse cx="1076" cy="700" rx="13" ry="7.5" fill="#524e48" stroke="#18140a" stroke-width="1.4"></ellipse><ellipse cx="1098" cy="700" rx="13" ry="7.5" fill="#706a60" stroke="#18140a" stroke-width="1.4"></ellipse><ellipse cx="1120" cy="700" rx="13" ry="7.5" fill="#524e48" stroke="#18140a" stroke-width="1.4"></ellipse><ellipse cx="1142" cy="700" rx="13" ry="7.5" fill="#706a60" stroke="#18140a" stroke-width="1.4"></ellipse><ellipse cx="1164" cy="700" rx="13" ry="7.5" fill="#524e48" stroke="#18140a" stroke-width="1.4"></ellipse><ellipse cx="1186" cy="700" rx="13" ry="7.5" fill="#706a60" stroke="#18140a" stroke-width="1.4"></ellipse><ellipse cx="1208" cy="700" rx="13" ry="7.5" fill="#524e48" stroke="#18140a" stroke-width="1.4"></ellipse><ellipse cx="1230" cy="700" rx="13" ry="7.5" fill="#706a60" stroke="#18140a" stroke-width="1.4"></ellipse><rect x="680" y="510" width="560" height="190" fill="#4a3c2c" stroke="#18140a" stroke-width="2.2"></rect><rect x="680" y="510" width="560" height="57" fill="#5a4a38" opacity="0.18"></rect><rect x="680" y="627.8" width="560" height="72.2" fill="#322618" opacity="0.28"></rect><line x1="680" y1="521.3" x2="1240" y2="521.3" stroke="#262010" stroke-width="1.8" opacity="0.7"></line><line x1="680" y1="534.8" x2="1240" y2="534.8" stroke="#262010" stroke-width="1.8" opacity="0.7"></line><line x1="680" y1="546.7" x2="1240" y2="546.7" stroke="#262010" stroke-width="1.8" opacity="0.7"></line><line x1="680" y1="557.3" x2="1240" y2="557.3" stroke="#262010" stroke-width="1.8" opacity="0.7"></line><line x1="680" y1="572.0" x2="1240" y2="572.0" stroke="#262010" stroke-width="1.8" opacity="0.7"></line><line x1="680" y1="583.8" x2="1240" y2="583.8" stroke="#262010" stroke-width="1.8" opacity="0.7"></line><line x1="680" y1="596.6" x2="1240" y2="596.6" stroke="#262010" stroke-width="1.8" opacity="0.7"></line><line x1="680" y1="610.6" x2="1240" y2="610.6" stroke="#262010" stroke-width="1.8" opacity="0.7"></line><line x1="680" y1="623.5" x2="1240" y2="623.5" stroke="#262010" stroke-width="1.8" opacity="0.7"></line><line x1="680" y1="637.8" x2="1240" y2="637.8" stroke="#262010" stroke-width="1.8" opacity="0.7"></line><line x1="680" y1="649.8" x2="1240" y2="649.8" stroke="#262010" stroke-width="1.8" opacity="0.7"></line><line x1="680" y1="662.7" x2="1240" y2="662.7" stroke="#262010" stroke-width="1.8" opacity="0.7"></line><line x1="680" y1="674.9" x2="1240" y2="674.9" stroke="#262010" stroke-width="1.8" opacity="0.7"></line><line x1="680" y1="686.6" x2="1240" y2="686.6" stroke="#262010" stroke-width="1.8" opacity="0.7"></line><ellipse cx="680" cy="516" rx="8" ry="7" fill="#5c4a36" stroke="#18140a" stroke-width="1.8"></ellipse><ellipse cx="679" cy="515" rx="3" ry="2.4" fill="#3e3020"></ellipse><ellipse cx="680" cy="528" rx="8" ry="7" fill="#5c4a36" stroke="#18140a" stroke-width="1.8"></ellipse><ellipse cx="679" cy="527" rx="3" ry="2.4" fill="#3e3020"></ellipse><ellipse cx="680" cy="540" rx="8" ry="7" fill="#5c4a36" stroke="#18140a" stroke-width="1.8"></ellipse><ellipse cx="679" cy="539" rx="3" ry="2.4" fill="#3e3020"></ellipse><ellipse cx="680" cy="552" rx="8" ry="7" fill="#5c4a36" stroke="#18140a" stroke-width="1.8"></ellipse><ellipse cx="679" cy="551" rx="3" ry="2.4" fill="#3e3020"></ellipse><ellipse cx="680" cy="564" rx="8" ry="7" fill="#5c4a36" stroke="#18140a" stroke-width="1.8"></ellipse><ellipse cx="679" cy="563" rx="3" ry="2.4" fill="#3e3020"></ellipse><ellipse cx="680" cy="576" rx="8" ry="7" fill="#5c4a36" stroke="#18140a" stroke-width="1.8"></ellipse><ellipse cx="679" cy="575" rx="3" ry="2.4" fill="#3e3020"></ellipse><ellipse cx="680" cy="588" rx="8" ry="7" fill="#5c4a36" stroke="#18140a" stroke-width="1.8"></ellipse><ellipse cx="679" cy="587" rx="3" ry="2.4" fill="#3e3020"></ellipse><ellipse cx="680" cy="600" rx="8" ry="7" fill="#5c4a36" stroke="#18140a" stroke-width="1.8"></ellipse><ellipse cx="679" cy="599" rx="3" ry="2.4" fill="#3e3020"></ellipse><ellipse cx="680" cy="612" rx="8" ry="7" fill="#5c4a36" stroke="#18140a" stroke-width="1.8"></ellipse><ellipse cx="679" cy="611" rx="3" ry="2.4" fill="#3e3020"></ellipse><ellipse cx="680" cy="624" rx="8" ry="7" fill="#5c4a36" stroke="#18140a" stroke-width="1.8"></ellipse><ellipse cx="679" cy="623" rx="3" ry="2.4" fill="#3e3020"></ellipse><ellipse cx="680" cy="636" rx="8" ry="7" fill="#5c4a36" stroke="#18140a" stroke-width="1.8"></ellipse><ellipse cx="679" cy="635" rx="3" ry="2.4" fill="#3e3020"></ellipse><ellipse cx="680" cy="648" rx="8" ry="7" fill="#5c4a36" stroke="#18140a" stroke-width="1.8"></ellipse><ellipse cx="679" cy="647" rx="3" ry="2.4" fill="#3e3020"></ellipse><ellipse cx="680" cy="660" rx="8" ry="7" fill="#5c4a36" stroke="#18140a" stroke-width="1.8"></ellipse><ellipse cx="679" cy="659" rx="3" ry="2.4" fill="#3e3020"></ellipse><ellipse cx="680" cy="672" rx="8" ry="7" fill="#5c4a36" stroke="#18140a" stroke-width="1.8"></ellipse><ellipse cx="679" cy="671" rx="3" ry="2.4" fill="#3e3020"></ellipse><ellipse cx="680" cy="684" rx="8" ry="7" fill="#5c4a36" stroke="#18140a" stroke-width="1.8"></ellipse><ellipse cx="679" cy="683" rx="3" ry="2.4" fill="#3e3020"></ellipse><ellipse cx="680" cy="696" rx="8" ry="7" fill="#5c4a36" stroke="#18140a" stroke-width="1.8"></ellipse><ellipse cx="679" cy="695" rx="3" ry="2.4" fill="#3e3020"></ellipse><ellipse cx="1240" cy="516" rx="8" ry="7" fill="#5c4a36" stroke="#18140a" stroke-width="1.8"></ellipse><ellipse cx="1239" cy="515" rx="3" ry="2.4" fill="#3e3020"></ellipse><ellipse cx="1240" cy="528" rx="8" ry="7" fill="#5c4a36" stroke="#18140a" stroke-width="1.8"></ellipse><ellipse cx="1239" cy="527" rx="3" ry="2.4" fill="#3e3020"></ellipse><ellipse cx="1240" cy="540" rx="8" ry="7" fill="#5c4a36" stroke="#18140a" stroke-width="1.8"></ellipse><ellipse cx="1239" cy="539" rx="3" ry="2.4" fill="#3e3020"></ellipse><ellipse cx="1240" cy="552" rx="8" ry="7" fill="#5c4a36" stroke="#18140a" stroke-width="1.8"></ellipse><ellipse cx="1239" cy="551" rx="3" ry="2.4" fill="#3e3020"></ellipse><ellipse cx="1240" cy="564" rx="8" ry="7" fill="#5c4a36" stroke="#18140a" stroke-width="1.8"></ellipse><ellipse cx="1239" cy="563" rx="3" ry="2.4" fill="#3e3020"></ellipse><ellipse cx="1240" cy="576" rx="8" ry="7" fill="#5c4a36" stroke="#18140a" stroke-width="1.8"></ellipse><ellipse cx="1239" cy="575" rx="3" ry="2.4" fill="#3e3020"></ellipse><ellipse cx="1240" cy="588" rx="8" ry="7" fill="#5c4a36" stroke="#18140a" stroke-width="1.8"></ellipse><ellipse cx="1239" cy="587" rx="3" ry="2.4" fill="#3e3020"></ellipse><ellipse cx="1240" cy="600" rx="8" ry="7" fill="#5c4a36" stroke="#18140a" stroke-width="1.8"></ellipse><ellipse cx="1239" cy="599" rx="3" ry="2.4" fill="#3e3020"></ellipse><ellipse cx="1240" cy="612" rx="8" ry="7" fill="#5c4a36" stroke="#18140a" stroke-width="1.8"></ellipse><ellipse cx="1239" cy="611" rx="3" ry="2.4" fill="#3e3020"></ellipse><ellipse cx="1240" cy="624" rx="8" ry="7" fill="#5c4a36" stroke="#18140a" stroke-width="1.8"></ellipse><ellipse cx="1239" cy="623" rx="3" ry="2.4" fill="#3e3020"></ellipse><ellipse cx="1240" cy="636" rx="8" ry="7" fill="#5c4a36" stroke="#18140a" stroke-width="1.8"></ellipse><ellipse cx="1239" cy="635" rx="3" ry="2.4" fill="#3e3020"></ellipse><ellipse cx="1240" cy="648" rx="8" ry="7" fill="#5c4a36" stroke="#18140a" stroke-width="1.8"></ellipse><ellipse cx="1239" cy="647" rx="3" ry="2.4" fill="#3e3020"></ellipse><ellipse cx="1240" cy="660" rx="8" ry="7" fill="#5c4a36" stroke="#18140a" stroke-width="1.8"></ellipse><ellipse cx="1239" cy="659" rx="3" ry="2.4" fill="#3e3020"></ellipse><ellipse cx="1240" cy="672" rx="8" ry="7" fill="#5c4a36" stroke="#18140a" stroke-width="1.8"></ellipse><ellipse cx="1239" cy="671" rx="3" ry="2.4" fill="#3e3020"></ellipse><ellipse cx="1240" cy="684" rx="8" ry="7" fill="#5c4a36" stroke="#18140a" stroke-width="1.8"></ellipse><ellipse cx="1239" cy="683" rx="3" ry="2.4" fill="#3e3020"></ellipse><ellipse cx="1240" cy="696" rx="8" ry="7" fill="#5c4a36" stroke="#18140a" stroke-width="1.8"></ellipse><ellipse cx="1239" cy="695" rx="3" ry="2.4" fill="#3e3020"></ellipse><path d="M705.7,696.0 L699.0,700.0 L692.7,703.3 L683.4,703.1 L676.1,700.3 L675.4,696.0 L675.5,691.5 L683.8,689.5 L693.5,687.6 L700.5,691.4 L705.8,696.0 Z" fill="#3a4818"></path><path d="M733.5,696.0 L730.4,700.5 L723.6,704.5 L713.0,703.7 L704.9,700.8 L702.9,696.0 L702.8,690.5 L713.6,689.3 L722.2,689.5 L732.6,690.7 L732.0,696.0 Z" fill="#3a4818"></path><path d="M760.1,696.0 L759.9,700.3 L752.9,703.5 L743.9,702.3 L734.6,700.9 L733.8,696.0 L737.2,692.1 L743.9,689.7 L752.2,689.5 L756.9,692.8 L764.2,696.0 Z" fill="#3a4818"></path><path d="M794.7,696.0 L789.4,700.1 L781.6,701.5 L774.2,701.9 L765.0,700.7 L764.4,696.0 L766.1,691.7 L773.4,688.9 L782.6,689.0 L788.0,692.3 L794.5,696.0 Z" fill="#3a4818"></path><path d="M823.2,696.0 L821.1,700.8 L813.6,704.6 L803.5,703.0 L794.3,701.0 L792.6,696.0 L793.7,690.8 L802.6,687.7 L813.3,687.8 L822.0,690.9 L823.0,696.0 Z" fill="#3a4818"></path><path d="M849.6,696.0 L848.9,699.9 L842.6,703.0 L833.1,703.6 L828.9,699.3 L826.8,696.0 L825.4,691.4 L834.2,690.1 L842.4,689.2 L851.0,691.3 L854.2,696.0 Z" fill="#3a4818"></path><path d="M877.3,696.0 L874.7,698.4 L871.0,700.5 L865.5,699.8 L860.8,698.6 L860.0,696.0 L858.2,692.4 L865.1,691.5 L871.6,690.4 L875.9,693.1 L879.7,696.0 Z" fill="#3a4818"></path><path d="M913.0,696.0 L911.3,700.8 L903.4,704.4 L892.9,703.8 L886.3,700.2 L880.3,696.0 L887.6,692.2 L892.4,687.5 L903.3,687.9 L908.8,692.1 L912.7,696.0 Z" fill="#3a4818"></path><path d="M940.5,696.0 L938.4,699.8 L930.7,700.1 L923.9,702.4 L917.3,699.9 L918.0,696.0 L917.4,692.1 L924.3,690.3 L931.8,690.1 L937.2,692.6 L939.3,696.0 Z" fill="#3a4818"></path><path d="M972.1,696.0 L967.6,699.5 L962.8,703.4 L953.8,702.4 L948.4,699.5 L945.4,696.0 L946.3,691.7 L952.9,688.2 L962.2,689.5 L970.1,691.6 L970.8,696.0 Z" fill="#3a4818"></path><path d="M1003.8,696.0 L998.0,699.6 L992.2,702.5 L984.4,701.5 L978.9,699.3 L977.5,696.0 L978.8,692.7 L983.6,689.3 L992.8,688.7 L1000.8,691.3 L1004.1,696.0 Z" fill="#3a4818"></path><path d="M1033.5,696.0 L1027.1,699.3 L1022.6,703.1 L1014.0,702.1 L1006.6,700.1 L1004.6,696.0 L1009.5,692.9 L1014.6,690.8 L1022.7,688.7 L1027.8,692.4 L1030.7,696.0 Z" fill="#3a4818"></path><path d="M1061.7,696.0 L1060.2,700.4 L1051.5,701.5 L1043.0,703.7 L1034.8,700.8 L1031.5,696.0 L1036.8,691.9 L1044.3,690.3 L1051.5,690.6 L1058.4,692.2 L1061.6,696.0 Z" fill="#3a4818"></path><path d="M1091.1,696.0 L1086.0,698.9 L1081.7,701.7 L1075.0,700.6 L1069.0,699.3 L1068.2,696.0 L1069.7,693.0 L1074.9,691.2 L1082.0,689.8 L1086.5,692.9 L1087.8,696.0 Z" fill="#3a4818"></path><path d="M1121.9,696.0 L1118.8,699.9 L1112.1,702.3 L1103.9,702.3 L1096.8,700.1 L1091.1,696.0 L1094.2,691.0 L1103.9,689.7 L1111.5,690.6 L1120.7,691.4 L1121.8,696.0 Z" fill="#3a4818"></path><path d="M1149.9,696.0 L1148.2,699.7 L1142.0,702.1 L1134.5,701.3 L1130.3,698.8 L1126.8,696.0 L1131.2,693.5 L1134.9,691.3 L1141.6,690.5 L1145.6,693.3 L1148.1,696.0 Z" fill="#3a4818"></path><path d="M1183.4,696.0 L1181.8,701.0 L1171.7,701.8 L1163.8,702.5 L1155.4,700.6 L1150.6,696.0 L1157.1,692.1 L1163.6,689.2 L1172.6,688.9 L1180.7,691.4 L1181.7,696.0 Z" fill="#3a4818"></path><path d="M1212.0,696.0 L1208.1,699.7 L1202.4,702.7 L1193.6,702.8 L1185.7,700.5 L1184.5,696.0 L1187.2,692.1 L1194.5,690.6 L1201.4,690.7 L1208.1,692.3 L1213.4,696.0 Z" fill="#3a4818"></path><path d="M1242.9,696.0 L1239.3,700.1 L1233.0,703.7 L1223.9,702.3 L1213.7,701.2 L1211.0,696.0 L1213.6,690.8 L1222.8,687.9 L1233.3,687.8 L1238.6,692.2 L1239.6,696.0 Z" fill="#3a4818"></path><rect x="924" y="545" width="72" height="155" rx="1" fill="#2a2010" stroke="#18140a" stroke-width="2.4"></rect><rect x="924" y="545" width="33.120000000000005" height="155" fill="#382c1c" opacity="0.2"></rect><line x1="960.0" y1="549.0" x2="960.0" y2="695.0" stroke="#18140a" stroke-width="1.4" opacity="0.4" stroke-linecap="round"></line><line x1="927.0" y1="583.8" x2="964.3" y2="583.8" stroke="#302828" stroke-width="5" opacity="1" stroke-linecap="round"></line><line x1="927.0" y1="656.6" x2="964.3" y2="656.6" stroke="#302828" stroke-width="5" opacity="1" stroke-linecap="round"></line><rect x="743" y="558" width="42" height="42" fill="#322618" stroke="#18140a" stroke-width="2.4"></rect><rect x="748" y="563" width="32" height="32" fill="#120e08"></rect><line x1="764.0" y1="563.0" x2="764.0" y2="595.0" stroke="#4a3c2c" stroke-width="1.8" opacity="0.6" stroke-linecap="round"></line><line x1="748.0" y1="579.0" x2="780.0" y2="579.0" stroke="#4a3c2c" stroke-width="1.8" opacity="0.6" stroke-linecap="round"></line><rect x="1135" y="558" width="42" height="42" fill="#322618" stroke="#18140a" stroke-width="2.4"></rect><rect x="1140" y="563" width="32" height="32" fill="#120e08"></rect><line x1="1156.0" y1="563.0" x2="1156.0" y2="595.0" stroke="#4a3c2c" stroke-width="1.8" opacity="0.6" stroke-linecap="round"></line><line x1="1140.0" y1="579.0" x2="1172.0" y2="579.0" stroke="#4a3c2c" stroke-width="1.8" opacity="0.6" stroke-linecap="round"></line><rect x="1012" y="685" width="92" height="10" rx="2" fill="#322618" stroke="#18140a" stroke-width="2"></rect><rect x="1021" y="685" width="9" height="24" fill="#322618" stroke="#18140a" stroke-width="1.6"></rect><rect x="1085" y="685" width="9" height="24" fill="#322618" stroke="#18140a" stroke-width="1.6"></rect><polygon points="170.0,646.0 424.0,646.0 374.7,562.0 219.3,562.0" fill="#c4a860" stroke="#18140a" stroke-width="2" stroke-linejoin="round"></polygon><polygon points="170.0,646.0 297.0,646.0 219.3,562.0 297.0,562.0" fill="#dcc070" opacity="0.25"></polygon><polygon points="297.0,646.0 424.0,646.0 374.7,562.0 297.0,562.0" fill="#9a8040" opacity="0.3"></polygon><line x1="178.2" y1="632.0" x2="415.8" y2="632.0" stroke="#9a8040" stroke-width="2" opacity="0.5" stroke-linecap="round"></line><line x1="186.4" y1="618.0" x2="407.6" y2="618.0" stroke="#9a8040" stroke-width="2" opacity="0.5" stroke-linecap="round"></line><line x1="194.7" y1="604.0" x2="399.4" y2="604.0" stroke="#9a8040" stroke-width="2" opacity="0.5" stroke-linecap="round"></line><line x1="202.9" y1="590.0" x2="391.1" y2="590.0" stroke="#9a8040" stroke-width="2" opacity="0.5" stroke-linecap="round"></line><line x1="211.1" y1="576.0" x2="382.9" y2="576.0" stroke="#9a8040" stroke-width="2" opacity="0.5" stroke-linecap="round"></line><line x1="219.3" y1="562.0" x2="170.0" y2="646.0" stroke="#382a10" stroke-width="11" opacity="1" stroke-linecap="round"></line><line x1="221.3" y1="563.0" x2="172.0" y2="647.0" stroke="#5a4020" stroke-width="3.5" opacity="0.55" stroke-linecap="round"></line><line x1="250.4" y1="562.0" x2="220.8" y2="646.0" stroke="#382a10" stroke-width="11" opacity="1" stroke-linecap="round"></line><line x1="252.4" y1="563.0" x2="222.8" y2="647.0" stroke="#5a4020" stroke-width="3.5" opacity="0.55" stroke-linecap="round"></line><line x1="281.5" y1="562.0" x2="271.6" y2="646.0" stroke="#382a10" stroke-width="11" opacity="1" stroke-linecap="round"></line><line x1="283.5" y1="563.0" x2="273.6" y2="647.0" stroke="#5a4020" stroke-width="3.5" opacity="0.55" stroke-linecap="round"></line><line x1="312.5" y1="562.0" x2="322.4" y2="646.0" stroke="#382a10" stroke-width="11" opacity="1" stroke-linecap="round"></line><line x1="314.5" y1="563.0" x2="324.4" y2="647.0" stroke="#5a4020" stroke-width="3.5" opacity="0.55" stroke-linecap="round"></line><line x1="343.6" y1="562.0" x2="373.2" y2="646.0" stroke="#382a10" stroke-width="11" opacity="1" stroke-linecap="round"></line><line x1="345.6" y1="563.0" x2="375.2" y2="647.0" stroke="#5a4020" stroke-width="3.5" opacity="0.55" stroke-linecap="round"></line><line x1="374.7" y1="562.0" x2="424.0" y2="646.0" stroke="#382a10" stroke-width="11" opacity="1" stroke-linecap="round"></line><line x1="376.7" y1="563.0" x2="426.0" y2="647.0" stroke="#5a4020" stroke-width="3.5" opacity="0.55" stroke-linecap="round"></line><line x1="219.3" y1="562.0" x2="374.7" y2="562.0" stroke="#382a10" stroke-width="14" opacity="1" stroke-linecap="round"></line><line x1="219.3" y1="562.0" x2="374.7" y2="562.0" stroke="#5a4020" stroke-width="4" opacity="0.6" stroke-linecap="round"></line><line x1="170.0" y1="646.0" x2="424.0" y2="646.0" stroke="#18140a" stroke-width="2.5" opacity="1" stroke-linecap="round"></line><ellipse cx="186" cy="772" rx="13" ry="7.5" fill="#524e48" stroke="#18140a" stroke-width="1.4"></ellipse><ellipse cx="208" cy="772" rx="13" ry="7.5" fill="#706a60" stroke="#18140a" stroke-width="1.4"></ellipse><ellipse cx="230" cy="772" rx="13" ry="7.5" fill="#524e48" stroke="#18140a" stroke-width="1.4"></ellipse><ellipse cx="252" cy="772" rx="13" ry="7.5" fill="#706a60" stroke="#18140a" stroke-width="1.4"></ellipse><ellipse cx="274" cy="772" rx="13" ry="7.5" fill="#524e48" stroke="#18140a" stroke-width="1.4"></ellipse><ellipse cx="296" cy="772" rx="13" ry="7.5" fill="#706a60" stroke="#18140a" stroke-width="1.4"></ellipse><ellipse cx="318" cy="772" rx="13" ry="7.5" fill="#524e48" stroke="#18140a" stroke-width="1.4"></ellipse><ellipse cx="340" cy="772" rx="13" ry="7.5" fill="#706a60" stroke="#18140a" stroke-width="1.4"></ellipse><ellipse cx="362" cy="772" rx="13" ry="7.5" fill="#524e48" stroke="#18140a" stroke-width="1.4"></ellipse><ellipse cx="384" cy="772" rx="13" ry="7.5" fill="#706a60" stroke="#18140a" stroke-width="1.4"></ellipse><ellipse cx="406" cy="772" rx="13" ry="7.5" fill="#524e48" stroke="#18140a" stroke-width="1.4"></ellipse><rect x="186" y="646" width="222" height="126" fill="#4a3c2c" stroke="#18140a" stroke-width="2.2"></rect><rect x="186" y="646" width="222" height="37.8" fill="#5a4a38" opacity="0.18"></rect><rect x="186" y="724.12" width="222" height="47.88" fill="#322618" opacity="0.28"></rect><line x1="186" y1="657.3" x2="408" y2="657.3" stroke="#262010" stroke-width="1.8" opacity="0.7"></line><line x1="186" y1="667.8" x2="408" y2="667.8" stroke="#262010" stroke-width="1.8" opacity="0.7"></line><line x1="186" y1="681.4" x2="408" y2="681.4" stroke="#262010" stroke-width="1.8" opacity="0.7"></line><line x1="186" y1="692.2" x2="408" y2="692.2" stroke="#262010" stroke-width="1.8" opacity="0.7"></line><line x1="186" y1="704.4" x2="408" y2="704.4" stroke="#262010" stroke-width="1.8" opacity="0.7"></line><line x1="186" y1="718.8" x2="408" y2="718.8" stroke="#262010" stroke-width="1.8" opacity="0.7"></line><line x1="186" y1="730.4" x2="408" y2="730.4" stroke="#262010" stroke-width="1.8" opacity="0.7"></line><line x1="186" y1="742.0" x2="408" y2="742.0" stroke="#262010" stroke-width="1.8" opacity="0.7"></line><line x1="186" y1="755.8" x2="408" y2="755.8" stroke="#262010" stroke-width="1.8" opacity="0.7"></line><line x1="186" y1="767.6" x2="408" y2="767.6" stroke="#262010" stroke-width="1.8" opacity="0.7"></line><ellipse cx="186" cy="652" rx="8" ry="7" fill="#5c4a36" stroke="#18140a" stroke-width="1.8"></ellipse><ellipse cx="185" cy="651" rx="3" ry="2.4" fill="#3e3020"></ellipse><ellipse cx="186" cy="664" rx="8" ry="7" fill="#5c4a36" stroke="#18140a" stroke-width="1.8"></ellipse><ellipse cx="185" cy="663" rx="3" ry="2.4" fill="#3e3020"></ellipse><ellipse cx="186" cy="676" rx="8" ry="7" fill="#5c4a36" stroke="#18140a" stroke-width="1.8"></ellipse><ellipse cx="185" cy="675" rx="3" ry="2.4" fill="#3e3020"></ellipse><ellipse cx="186" cy="688" rx="8" ry="7" fill="#5c4a36" stroke="#18140a" stroke-width="1.8"></ellipse><ellipse cx="185" cy="687" rx="3" ry="2.4" fill="#3e3020"></ellipse><ellipse cx="186" cy="700" rx="8" ry="7" fill="#5c4a36" stroke="#18140a" stroke-width="1.8"></ellipse><ellipse cx="185" cy="699" rx="3" ry="2.4" fill="#3e3020"></ellipse><ellipse cx="186" cy="712" rx="8" ry="7" fill="#5c4a36" stroke="#18140a" stroke-width="1.8"></ellipse><ellipse cx="185" cy="711" rx="3" ry="2.4" fill="#3e3020"></ellipse><ellipse cx="186" cy="724" rx="8" ry="7" fill="#5c4a36" stroke="#18140a" stroke-width="1.8"></ellipse><ellipse cx="185" cy="723" rx="3" ry="2.4" fill="#3e3020"></ellipse><ellipse cx="186" cy="736" rx="8" ry="7" fill="#5c4a36" stroke="#18140a" stroke-width="1.8"></ellipse><ellipse cx="185" cy="735" rx="3" ry="2.4" fill="#3e3020"></ellipse><ellipse cx="186" cy="748" rx="8" ry="7" fill="#5c4a36" stroke="#18140a" stroke-width="1.8"></ellipse><ellipse cx="185" cy="747" rx="3" ry="2.4" fill="#3e3020"></ellipse><ellipse cx="186" cy="760" rx="8" ry="7" fill="#5c4a36" stroke="#18140a" stroke-width="1.8"></ellipse><ellipse cx="185" cy="759" rx="3" ry="2.4" fill="#3e3020"></ellipse><ellipse cx="408" cy="652" rx="8" ry="7" fill="#5c4a36" stroke="#18140a" stroke-width="1.8"></ellipse><ellipse cx="407" cy="651" rx="3" ry="2.4" fill="#3e3020"></ellipse><ellipse cx="408" cy="664" rx="8" ry="7" fill="#5c4a36" stroke="#18140a" stroke-width="1.8"></ellipse><ellipse cx="407" cy="663" rx="3" ry="2.4" fill="#3e3020"></ellipse><ellipse cx="408" cy="676" rx="8" ry="7" fill="#5c4a36" stroke="#18140a" stroke-width="1.8"></ellipse><ellipse cx="407" cy="675" rx="3" ry="2.4" fill="#3e3020"></ellipse><ellipse cx="408" cy="688" rx="8" ry="7" fill="#5c4a36" stroke="#18140a" stroke-width="1.8"></ellipse><ellipse cx="407" cy="687" rx="3" ry="2.4" fill="#3e3020"></ellipse><ellipse cx="408" cy="700" rx="8" ry="7" fill="#5c4a36" stroke="#18140a" stroke-width="1.8"></ellipse><ellipse cx="407" cy="699" rx="3" ry="2.4" fill="#3e3020"></ellipse><ellipse cx="408" cy="712" rx="8" ry="7" fill="#5c4a36" stroke="#18140a" stroke-width="1.8"></ellipse><ellipse cx="407" cy="711" rx="3" ry="2.4" fill="#3e3020"></ellipse><ellipse cx="408" cy="724" rx="8" ry="7" fill="#5c4a36" stroke="#18140a" stroke-width="1.8"></ellipse><ellipse cx="407" cy="723" rx="3" ry="2.4" fill="#3e3020"></ellipse><ellipse cx="408" cy="736" rx="8" ry="7" fill="#5c4a36" stroke="#18140a" stroke-width="1.8"></ellipse><ellipse cx="407" cy="735" rx="3" ry="2.4" fill="#3e3020"></ellipse><ellipse cx="408" cy="748" rx="8" ry="7" fill="#5c4a36" stroke="#18140a" stroke-width="1.8"></ellipse><ellipse cx="407" cy="747" rx="3" ry="2.4" fill="#3e3020"></ellipse><ellipse cx="408" cy="760" rx="8" ry="7" fill="#5c4a36" stroke="#18140a" stroke-width="1.8"></ellipse><ellipse cx="407" cy="759" rx="3" ry="2.4" fill="#3e3020"></ellipse><path d="M205.3,768.0 L203.9,771.6 L198.3,774.7 L189.7,774.6 L185.8,771.0 L183.4,768.0 L185.2,764.8 L191.0,763.4 L197.4,762.7 L204.5,764.2 L205.0,768.0 Z" fill="#3a4818"></path><path d="M237.7,768.0 L237.3,772.8 L228.1,774.2 L218.3,776.7 L209.1,773.4 L211.0,768.0 L209.6,762.8 L220.2,762.2 L227.8,762.2 L236.0,763.6 L242.5,768.0 Z" fill="#3a4818"></path><path d="M262.8,768.0 L262.1,770.9 L257.2,772.9 L250.7,773.1 L244.6,771.4 L243.7,768.0 L245.6,764.9 L250.4,762.5 L257.3,762.9 L263.3,764.6 L263.1,768.0 Z" fill="#3a4818"></path><path d="M296.6,768.0 L293.5,771.4 L288.7,775.3 L279.8,774.4 L272.5,772.2 L271.9,768.0 L273.4,764.1 L279.9,761.7 L287.8,762.1 L297.2,763.2 L299.5,768.0 Z" fill="#3a4818"></path><path d="M327.3,768.0 L324.1,771.7 L318.4,774.8 L309.8,774.4 L304.0,771.6 L302.9,768.0 L304.8,764.6 L309.9,761.7 L317.9,762.1 L322.6,764.9 L325.5,768.0 Z" fill="#3a4818"></path><path d="M355.2,768.0 L354.4,771.8 L347.4,773.2 L339.6,774.8 L332.8,772.1 L330.9,768.0 L333.0,764.0 L340.7,762.9 L347.6,762.4 L353.4,764.6 L357.5,768.0 Z" fill="#3a4818"></path><path d="M388.8,768.0 L384.4,771.8 L377.5,773.4 L368.9,775.8 L363.1,771.9 L359.4,768.0 L363.2,764.1 L369.4,761.0 L378.0,761.8 L383.1,764.7 L388.7,768.0 Z" fill="#3a4818"></path><path d="M420.9,768.0 L417.5,772.9 L408.9,775.5 L399.8,774.4 L390.1,773.0 L389.8,768.0 L391.5,763.5 L398.6,759.6 L408.0,761.8 L416.9,763.3 L421.2,768.0 Z" fill="#3a4818"></path><rect x="258" y="656" width="78" height="116" rx="1" fill="#2a2010" stroke="#18140a" stroke-width="2.4"></rect><rect x="258" y="656" width="35.88" height="116" fill="#382c1c" opacity="0.2"></rect><line x1="297.0" y1="660.0" x2="297.0" y2="767.0" stroke="#18140a" stroke-width="1.4" opacity="0.4" stroke-linecap="round"></line><line x1="261.0" y1="685.0" x2="301.7" y2="685.0" stroke="#302828" stroke-width="5" opacity="1" stroke-linecap="round"></line><line x1="261.0" y1="739.5" x2="301.7" y2="739.5" stroke="#302828" stroke-width="5" opacity="1" stroke-linecap="round"></line><rect x="297" y="674" width="36" height="30" fill="#322618" opacity="0.6"></rect><path d="M201.1,769.0 L202.1,773.4 L193.6,774.5 L185.8,775.4 L178.9,773.0 L175.5,769.0 L179.1,765.1 L186.6,763.7 L193.4,763.7 L201.3,764.9 L202.9,769.0 Z" fill="#3a4818"></path><path d="M223.0,769.0 L221.9,774.1 L213.5,777.5 L203.6,775.8 L196.8,773.1 L190.1,769.0 L192.2,763.3 L203.6,762.2 L213.5,760.5 L220.1,764.6 L225.7,769.0 Z" fill="#3a4818"></path><path d="M240.0,769.0 L239.1,773.7 L232.4,778.8 L221.3,776.2 L212.4,773.9 L206.0,769.0 L213.8,764.6 L221.2,761.7 L232.1,759.6 L240.0,763.9 L242.5,769.0 Z" fill="#3a4818"></path><path d="M256.8,769.0 L254.6,772.9 L249.7,777.8 L238.6,777.2 L228.9,774.5 L227.9,769.0 L232.9,765.0 L240.0,762.8 L250.1,759.6 L259.3,763.4 L261.7,769.0 Z" fill="#3a4818"></path><path d="M274.8,769.0 L271.0,772.3 L266.1,775.3 L258.3,774.6 L254.1,771.9 L251.2,769.0 L253.1,765.8 L257.5,762.0 L266.5,762.1 L272.8,765.1 L273.3,769.0 Z" fill="#3a4818"></path><path d="M297.0,769.0 L294.0,774.1 L284.6,776.1 L275.4,776.1 L269.3,772.9 L266.4,769.0 L266.9,764.2 L274.8,761.0 L284.2,762.5 L293.6,764.0 L293.9,769.0 Z" fill="#3a4818"></path><path d="M314.5,769.0 L312.6,774.3 L303.8,777.9 L293.5,775.9 L283.2,774.4 L284.2,769.0 L286.9,765.0 L293.3,761.7 L302.4,762.3 L312.2,763.8 L313.2,769.0 Z" fill="#3a4818"></path><path d="M330.3,769.0 L327.7,773.3 L321.0,776.7 L312.5,774.3 L303.9,773.4 L303.3,769.0 L303.0,764.3 L312.0,762.8 L321.1,761.1 L327.9,764.7 L330.0,769.0 Z" fill="#3a4818"></path><path d="M345.8,769.0 L345.1,773.0 L338.3,775.6 L329.6,775.7 L323.5,772.8 L322.3,769.0 L324.7,765.6 L329.5,762.0 L337.5,763.5 L346.6,764.4 L349.2,769.0 Z" fill="#3a4818"></path><path d="M364.4,769.0 L361.3,772.4 L356.2,775.5 L347.3,776.2 L340.7,773.1 L336.9,769.0 L342.6,765.6 L347.7,762.3 L355.7,763.3 L364.4,764.5 L368.0,769.0 Z" fill="#3a4818"></path><path d="M388.5,769.0 L385.7,774.7 L376.1,778.3 L365.7,775.6 L357.6,773.5 L350.2,769.0 L355.3,763.6 L364.8,761.1 L374.7,761.7 L381.3,764.9 L387.3,769.0 Z" fill="#3a4818"></path><path d="M399.1,769.0 L400.1,773.4 L392.1,775.3 L384.5,774.3 L378.5,772.5 L374.3,769.0 L378.6,765.6 L383.4,761.8 L392.1,762.6 L395.9,766.1 L400.1,769.0 Z" fill="#3a4818"></path><path d="M421.3,769.0 L416.8,772.9 L410.6,776.0 L401.7,775.6 L395.6,772.8 L390.2,769.0 L396.5,765.5 L400.7,760.8 L410.5,762.1 L416.4,765.2 L420.4,769.0 Z" fill="#3a4818"></path><line x1="406.0" y1="772.0" x2="422.0" y2="604.0" stroke="#3c3020" stroke-width="7" opacity="1" stroke-linecap="round"></line><line x1="406.0" y1="772.0" x2="422.0" y2="604.0" stroke="#6e4c28" stroke-width="3.5" opacity="1" stroke-linecap="round"></line><path d="M414,615 C432,607 450,618 444,636 C438,651 416,645 414,615 Z" fill="#5a5858" stroke="#18140a" stroke-width="2.2"></path><polygon points="1290.0,564.0 1750.0,564.0 1667.0,440.0 1373.0,440.0" fill="#c4a860" stroke="#18140a" stroke-width="2" stroke-linejoin="round"></polygon><polygon points="1290.0,564.0 1520.0,564.0 1373.0,440.0 1520.0,440.0" fill="#dcc070" opacity="0.25"></polygon><polygon points="1520.0,564.0 1750.0,564.0 1667.0,440.0 1520.0,440.0" fill="#9a8040" opacity="0.3"></polygon><line x1="1299.2" y1="550.2" x2="1740.8" y2="550.2" stroke="#9a8040" stroke-width="2" opacity="0.5" stroke-linecap="round"></line><line x1="1308.4" y1="536.4" x2="1731.6" y2="536.4" stroke="#9a8040" stroke-width="2" opacity="0.5" stroke-linecap="round"></line><line x1="1317.7" y1="522.7" x2="1722.3" y2="522.7" stroke="#9a8040" stroke-width="2" opacity="0.5" stroke-linecap="round"></line><line x1="1326.9" y1="508.9" x2="1713.1" y2="508.9" stroke="#9a8040" stroke-width="2" opacity="0.5" stroke-linecap="round"></line><line x1="1336.1" y1="495.1" x2="1703.9" y2="495.1" stroke="#9a8040" stroke-width="2" opacity="0.5" stroke-linecap="round"></line><line x1="1345.3" y1="481.3" x2="1694.7" y2="481.3" stroke="#9a8040" stroke-width="2" opacity="0.5" stroke-linecap="round"></line><line x1="1354.6" y1="467.6" x2="1685.4" y2="467.6" stroke="#9a8040" stroke-width="2" opacity="0.5" stroke-linecap="round"></line><line x1="1363.8" y1="453.8" x2="1676.2" y2="453.8" stroke="#9a8040" stroke-width="2" opacity="0.5" stroke-linecap="round"></line><line x1="1373.0" y1="440.0" x2="1290.0" y2="564.0" stroke="#382a10" stroke-width="11" opacity="1" stroke-linecap="round"></line><line x1="1375.0" y1="441.0" x2="1292.0" y2="565.0" stroke="#5a4020" stroke-width="3.5" opacity="0.55" stroke-linecap="round"></line><line x1="1405.7" y1="440.0" x2="1341.1" y2="564.0" stroke="#382a10" stroke-width="11" opacity="1" stroke-linecap="round"></line><line x1="1407.7" y1="441.0" x2="1343.1" y2="565.0" stroke="#5a4020" stroke-width="3.5" opacity="0.55" stroke-linecap="round"></line><line x1="1438.3" y1="440.0" x2="1392.2" y2="564.0" stroke="#382a10" stroke-width="11" opacity="1" stroke-linecap="round"></line><line x1="1440.3" y1="441.0" x2="1394.2" y2="565.0" stroke="#5a4020" stroke-width="3.5" opacity="0.55" stroke-linecap="round"></line><line x1="1471.0" y1="440.0" x2="1443.3" y2="564.0" stroke="#382a10" stroke-width="11" opacity="1" stroke-linecap="round"></line><line x1="1473.0" y1="441.0" x2="1445.3" y2="565.0" stroke="#5a4020" stroke-width="3.5" opacity="0.55" stroke-linecap="round"></line><line x1="1503.7" y1="440.0" x2="1494.4" y2="564.0" stroke="#382a10" stroke-width="11" opacity="1" stroke-linecap="round"></line><line x1="1505.7" y1="441.0" x2="1496.4" y2="565.0" stroke="#5a4020" stroke-width="3.5" opacity="0.55" stroke-linecap="round"></line><line x1="1536.3" y1="440.0" x2="1545.6" y2="564.0" stroke="#382a10" stroke-width="11" opacity="1" stroke-linecap="round"></line><line x1="1538.3" y1="441.0" x2="1547.6" y2="565.0" stroke="#5a4020" stroke-width="3.5" opacity="0.55" stroke-linecap="round"></line><line x1="1569.0" y1="440.0" x2="1596.7" y2="564.0" stroke="#382a10" stroke-width="11" opacity="1" stroke-linecap="round"></line><line x1="1571.0" y1="441.0" x2="1598.7" y2="565.0" stroke="#5a4020" stroke-width="3.5" opacity="0.55" stroke-linecap="round"></line><line x1="1601.7" y1="440.0" x2="1647.8" y2="564.0" stroke="#382a10" stroke-width="11" opacity="1" stroke-linecap="round"></line><line x1="1603.7" y1="441.0" x2="1649.8" y2="565.0" stroke="#5a4020" stroke-width="3.5" opacity="0.55" stroke-linecap="round"></line><line x1="1634.3" y1="440.0" x2="1698.9" y2="564.0" stroke="#382a10" stroke-width="11" opacity="1" stroke-linecap="round"></line><line x1="1636.3" y1="441.0" x2="1700.9" y2="565.0" stroke="#5a4020" stroke-width="3.5" opacity="0.55" stroke-linecap="round"></line><line x1="1667.0" y1="440.0" x2="1750.0" y2="564.0" stroke="#382a10" stroke-width="11" opacity="1" stroke-linecap="round"></line><line x1="1669.0" y1="441.0" x2="1752.0" y2="565.0" stroke="#5a4020" stroke-width="3.5" opacity="0.55" stroke-linecap="round"></line><line x1="1373.0" y1="440.0" x2="1667.0" y2="440.0" stroke="#382a10" stroke-width="14" opacity="1" stroke-linecap="round"></line><line x1="1373.0" y1="440.0" x2="1667.0" y2="440.0" stroke="#5a4020" stroke-width="4" opacity="0.6" stroke-linecap="round"></line><line x1="1290.0" y1="564.0" x2="1750.0" y2="564.0" stroke="#18140a" stroke-width="2.5" opacity="1" stroke-linecap="round"></line><ellipse cx="1310" cy="724" rx="13" ry="7.5" fill="#706a60" stroke="#18140a" stroke-width="1.4"></ellipse><ellipse cx="1332" cy="724" rx="13" ry="7.5" fill="#524e48" stroke="#18140a" stroke-width="1.4"></ellipse><ellipse cx="1354" cy="724" rx="13" ry="7.5" fill="#706a60" stroke="#18140a" stroke-width="1.4"></ellipse><ellipse cx="1376" cy="724" rx="13" ry="7.5" fill="#524e48" stroke="#18140a" stroke-width="1.4"></ellipse><ellipse cx="1398" cy="724" rx="13" ry="7.5" fill="#706a60" stroke="#18140a" stroke-width="1.4"></ellipse><ellipse cx="1420" cy="724" rx="13" ry="7.5" fill="#524e48" stroke="#18140a" stroke-width="1.4"></ellipse><ellipse cx="1442" cy="724" rx="13" ry="7.5" fill="#706a60" stroke="#18140a" stroke-width="1.4"></ellipse><ellipse cx="1464" cy="724" rx="13" ry="7.5" fill="#524e48" stroke="#18140a" stroke-width="1.4"></ellipse><ellipse cx="1486" cy="724" rx="13" ry="7.5" fill="#706a60" stroke="#18140a" stroke-width="1.4"></ellipse><ellipse cx="1508" cy="724" rx="13" ry="7.5" fill="#524e48" stroke="#18140a" stroke-width="1.4"></ellipse><ellipse cx="1530" cy="724" rx="13" ry="7.5" fill="#706a60" stroke="#18140a" stroke-width="1.4"></ellipse><ellipse cx="1552" cy="724" rx="13" ry="7.5" fill="#524e48" stroke="#18140a" stroke-width="1.4"></ellipse><ellipse cx="1574" cy="724" rx="13" ry="7.5" fill="#706a60" stroke="#18140a" stroke-width="1.4"></ellipse><ellipse cx="1596" cy="724" rx="13" ry="7.5" fill="#524e48" stroke="#18140a" stroke-width="1.4"></ellipse><ellipse cx="1618" cy="724" rx="13" ry="7.5" fill="#706a60" stroke="#18140a" stroke-width="1.4"></ellipse><ellipse cx="1640" cy="724" rx="13" ry="7.5" fill="#524e48" stroke="#18140a" stroke-width="1.4"></ellipse><ellipse cx="1662" cy="724" rx="13" ry="7.5" fill="#706a60" stroke="#18140a" stroke-width="1.4"></ellipse><ellipse cx="1684" cy="724" rx="13" ry="7.5" fill="#524e48" stroke="#18140a" stroke-width="1.4"></ellipse><ellipse cx="1706" cy="724" rx="13" ry="7.5" fill="#706a60" stroke="#18140a" stroke-width="1.4"></ellipse><ellipse cx="1728" cy="724" rx="13" ry="7.5" fill="#524e48" stroke="#18140a" stroke-width="1.4"></ellipse><rect x="1310" y="564" width="420" height="160" fill="#4a3c2c" stroke="#18140a" stroke-width="2.2"></rect><rect x="1310" y="564" width="420" height="48" fill="#5a4a38" opacity="0.18"></rect><rect x="1310" y="663.2" width="420" height="60.8" fill="#322618" opacity="0.28"></rect><line x1="1310" y1="575.4" x2="1730" y2="575.4" stroke="#262010" stroke-width="1.8" opacity="0.7"></line><line x1="1310" y1="586.9" x2="1730" y2="586.9" stroke="#262010" stroke-width="1.8" opacity="0.7"></line><line x1="1310" y1="600.4" x2="1730" y2="600.4" stroke="#262010" stroke-width="1.8" opacity="0.7"></line><line x1="1310" y1="611.3" x2="1730" y2="611.3" stroke="#262010" stroke-width="1.8" opacity="0.7"></line><line x1="1310" y1="624.9" x2="1730" y2="624.9" stroke="#262010" stroke-width="1.8" opacity="0.7"></line><line x1="1310" y1="637.0" x2="1730" y2="637.0" stroke="#262010" stroke-width="1.8" opacity="0.7"></line><line x1="1310" y1="649.3" x2="1730" y2="649.3" stroke="#262010" stroke-width="1.8" opacity="0.7"></line><line x1="1310" y1="661.7" x2="1730" y2="661.7" stroke="#262010" stroke-width="1.8" opacity="0.7"></line><line x1="1310" y1="673.1" x2="1730" y2="673.1" stroke="#262010" stroke-width="1.8" opacity="0.7"></line><line x1="1310" y1="684.4" x2="1730" y2="684.4" stroke="#262010" stroke-width="1.8" opacity="0.7"></line><line x1="1310" y1="696.4" x2="1730" y2="696.4" stroke="#262010" stroke-width="1.8" opacity="0.7"></line><line x1="1310" y1="709.5" x2="1730" y2="709.5" stroke="#262010" stroke-width="1.8" opacity="0.7"></line><ellipse cx="1310" cy="570" rx="8" ry="7" fill="#5c4a36" stroke="#18140a" stroke-width="1.8"></ellipse><ellipse cx="1309" cy="569" rx="3" ry="2.4" fill="#3e3020"></ellipse><ellipse cx="1310" cy="582" rx="8" ry="7" fill="#5c4a36" stroke="#18140a" stroke-width="1.8"></ellipse><ellipse cx="1309" cy="581" rx="3" ry="2.4" fill="#3e3020"></ellipse><ellipse cx="1310" cy="594" rx="8" ry="7" fill="#5c4a36" stroke="#18140a" stroke-width="1.8"></ellipse><ellipse cx="1309" cy="593" rx="3" ry="2.4" fill="#3e3020"></ellipse><ellipse cx="1310" cy="606" rx="8" ry="7" fill="#5c4a36" stroke="#18140a" stroke-width="1.8"></ellipse><ellipse cx="1309" cy="605" rx="3" ry="2.4" fill="#3e3020"></ellipse><ellipse cx="1310" cy="618" rx="8" ry="7" fill="#5c4a36" stroke="#18140a" stroke-width="1.8"></ellipse><ellipse cx="1309" cy="617" rx="3" ry="2.4" fill="#3e3020"></ellipse><ellipse cx="1310" cy="630" rx="8" ry="7" fill="#5c4a36" stroke="#18140a" stroke-width="1.8"></ellipse><ellipse cx="1309" cy="629" rx="3" ry="2.4" fill="#3e3020"></ellipse><ellipse cx="1310" cy="642" rx="8" ry="7" fill="#5c4a36" stroke="#18140a" stroke-width="1.8"></ellipse><ellipse cx="1309" cy="641" rx="3" ry="2.4" fill="#3e3020"></ellipse><ellipse cx="1310" cy="654" rx="8" ry="7" fill="#5c4a36" stroke="#18140a" stroke-width="1.8"></ellipse><ellipse cx="1309" cy="653" rx="3" ry="2.4" fill="#3e3020"></ellipse><ellipse cx="1310" cy="666" rx="8" ry="7" fill="#5c4a36" stroke="#18140a" stroke-width="1.8"></ellipse><ellipse cx="1309" cy="665" rx="3" ry="2.4" fill="#3e3020"></ellipse><ellipse cx="1310" cy="678" rx="8" ry="7" fill="#5c4a36" stroke="#18140a" stroke-width="1.8"></ellipse><ellipse cx="1309" cy="677" rx="3" ry="2.4" fill="#3e3020"></ellipse><ellipse cx="1310" cy="690" rx="8" ry="7" fill="#5c4a36" stroke="#18140a" stroke-width="1.8"></ellipse><ellipse cx="1309" cy="689" rx="3" ry="2.4" fill="#3e3020"></ellipse><ellipse cx="1310" cy="702" rx="8" ry="7" fill="#5c4a36" stroke="#18140a" stroke-width="1.8"></ellipse><ellipse cx="1309" cy="701" rx="3" ry="2.4" fill="#3e3020"></ellipse><ellipse cx="1310" cy="714" rx="8" ry="7" fill="#5c4a36" stroke="#18140a" stroke-width="1.8"></ellipse><ellipse cx="1309" cy="713" rx="3" ry="2.4" fill="#3e3020"></ellipse><ellipse cx="1730" cy="570" rx="8" ry="7" fill="#5c4a36" stroke="#18140a" stroke-width="1.8"></ellipse><ellipse cx="1729" cy="569" rx="3" ry="2.4" fill="#3e3020"></ellipse><ellipse cx="1730" cy="582" rx="8" ry="7" fill="#5c4a36" stroke="#18140a" stroke-width="1.8"></ellipse><ellipse cx="1729" cy="581" rx="3" ry="2.4" fill="#3e3020"></ellipse><ellipse cx="1730" cy="594" rx="8" ry="7" fill="#5c4a36" stroke="#18140a" stroke-width="1.8"></ellipse><ellipse cx="1729" cy="593" rx="3" ry="2.4" fill="#3e3020"></ellipse><ellipse cx="1730" cy="606" rx="8" ry="7" fill="#5c4a36" stroke="#18140a" stroke-width="1.8"></ellipse><ellipse cx="1729" cy="605" rx="3" ry="2.4" fill="#3e3020"></ellipse><ellipse cx="1730" cy="618" rx="8" ry="7" fill="#5c4a36" stroke="#18140a" stroke-width="1.8"></ellipse><ellipse cx="1729" cy="617" rx="3" ry="2.4" fill="#3e3020"></ellipse><ellipse cx="1730" cy="630" rx="8" ry="7" fill="#5c4a36" stroke="#18140a" stroke-width="1.8"></ellipse><ellipse cx="1729" cy="629" rx="3" ry="2.4" fill="#3e3020"></ellipse><ellipse cx="1730" cy="642" rx="8" ry="7" fill="#5c4a36" stroke="#18140a" stroke-width="1.8"></ellipse><ellipse cx="1729" cy="641" rx="3" ry="2.4" fill="#3e3020"></ellipse><ellipse cx="1730" cy="654" rx="8" ry="7" fill="#5c4a36" stroke="#18140a" stroke-width="1.8"></ellipse><ellipse cx="1729" cy="653" rx="3" ry="2.4" fill="#3e3020"></ellipse><ellipse cx="1730" cy="666" rx="8" ry="7" fill="#5c4a36" stroke="#18140a" stroke-width="1.8"></ellipse><ellipse cx="1729" cy="665" rx="3" ry="2.4" fill="#3e3020"></ellipse><ellipse cx="1730" cy="678" rx="8" ry="7" fill="#5c4a36" stroke="#18140a" stroke-width="1.8"></ellipse><ellipse cx="1729" cy="677" rx="3" ry="2.4" fill="#3e3020"></ellipse><ellipse cx="1730" cy="690" rx="8" ry="7" fill="#5c4a36" stroke="#18140a" stroke-width="1.8"></ellipse><ellipse cx="1729" cy="689" rx="3" ry="2.4" fill="#3e3020"></ellipse><ellipse cx="1730" cy="702" rx="8" ry="7" fill="#5c4a36" stroke="#18140a" stroke-width="1.8"></ellipse><ellipse cx="1729" cy="701" rx="3" ry="2.4" fill="#3e3020"></ellipse><ellipse cx="1730" cy="714" rx="8" ry="7" fill="#5c4a36" stroke="#18140a" stroke-width="1.8"></ellipse><ellipse cx="1729" cy="713" rx="3" ry="2.4" fill="#3e3020"></ellipse><path d="M1330.2,720.0 L1331.5,724.9 L1322.9,727.5 L1313.0,727.6 L1306.9,724.0 L1305.2,720.0 L1308.1,716.4 L1312.8,712.0 L1321.6,714.5 L1327.6,716.5 L1330.2,720.0 Z" fill="#3a4818"></path><path d="M1360.4,720.0 L1359.8,724.3 L1352.1,726.4 L1344.7,725.0 L1336.9,724.0 L1336.1,720.0 L1337.5,716.2 L1344.7,714.9 L1351.4,714.8 L1358.1,716.3 L1362.0,720.0 Z" fill="#3a4818"></path><path d="M1394.8,720.0 L1390.1,724.4 L1383.0,727.7 L1374.1,725.9 L1366.7,724.1 L1365.0,720.0 L1365.6,715.5 L1374.3,714.3 L1383.4,711.7 L1390.7,715.4 L1390.4,720.0 Z" fill="#3a4818"></path><path d="M1421.9,720.0 L1421.8,725.0 L1412.2,726.4 L1402.4,728.6 L1393.3,725.3 L1390.9,720.0 L1397.3,716.1 L1402.3,711.3 L1413.5,711.5 L1419.9,715.7 L1422.1,720.0 Z" fill="#3a4818"></path><path d="M1454.8,720.0 L1449.7,724.2 L1441.9,726.0 L1433.3,727.3 L1422.7,725.6 L1423.3,720.0 L1427.4,716.2 L1433.0,712.3 L1442.0,713.8 L1451.7,715.0 L1450.6,720.0 Z" fill="#3a4818"></path><path d="M1478.1,720.0 L1477.5,723.5 L1471.8,725.8 L1464.9,724.8 L1458.9,723.3 L1454.3,720.0 L1459.9,717.0 L1464.9,715.3 L1471.6,714.4 L1477.7,716.5 L1477.0,720.0 Z" fill="#3a4818"></path><path d="M1509.5,720.0 L1505.7,722.8 L1501.8,725.8 L1494.4,725.5 L1488.5,723.5 L1485.9,720.0 L1488.1,716.4 L1494.4,714.4 L1502.3,713.4 L1508.6,716.1 L1508.0,720.0 Z" fill="#3a4818"></path><path d="M1540.5,720.0 L1537.8,723.6 L1531.5,725.4 L1524.0,726.1 L1519.6,723.1 L1518.5,720.0 L1520.3,717.2 L1523.8,713.6 L1531.7,714.3 L1538.2,716.3 L1537.1,720.0 Z" fill="#3a4818"></path><path d="M1571.3,720.0 L1566.3,723.0 L1562.0,726.2 L1553.7,726.7 L1548.7,723.4 L1545.9,720.0 L1547.9,716.3 L1554.2,714.1 L1562.0,713.8 L1568.5,716.2 L1572.2,720.0 Z" fill="#3a4818"></path><path d="M1601.9,720.0 L1600.7,724.6 L1591.6,725.5 L1583.7,726.6 L1574.4,724.9 L1574.4,720.0 L1575.0,715.3 L1584.0,713.8 L1593.5,711.6 L1599.1,716.0 L1603.4,720.0 Z" fill="#3a4818"></path><path d="M1631.6,720.0 L1628.5,723.8 L1621.7,725.7 L1614.4,725.5 L1605.6,724.5 L1607.4,720.0 L1607.4,716.1 L1614.0,713.8 L1621.5,714.5 L1626.3,717.0 L1629.8,720.0 Z" fill="#3a4818"></path><path d="M1662.2,720.0 L1659.7,724.3 L1652.0,726.1 L1644.1,726.0 L1638.9,723.3 L1634.0,720.0 L1638.0,716.4 L1644.6,714.8 L1652.1,713.6 L1658.3,716.3 L1662.1,720.0 Z" fill="#3a4818"></path><path d="M1693.4,720.0 L1690.9,724.7 L1682.1,726.3 L1673.7,726.5 L1669.3,723.2 L1662.0,720.0 L1668.1,716.4 L1673.1,712.4 L1681.6,714.5 L1689.0,716.0 L1689.7,720.0 Z" fill="#3a4818"></path><path d="M1721.2,720.0 L1718.5,723.8 L1712.4,726.8 L1703.2,727.4 L1698.7,723.4 L1694.8,720.0 L1698.7,716.6 L1702.8,712.0 L1712.4,713.3 L1717.1,716.7 L1721.4,720.0 Z" fill="#3a4818"></path><rect x="1462.5" y="569" width="115" height="155" rx="1" fill="#2a2010" stroke="#18140a" stroke-width="2.4"></rect><rect x="1462.5" y="569" width="52.900000000000006" height="155" fill="#382c1c" opacity="0.2"></rect><line x1="1520.0" y1="573.0" x2="1520.0" y2="719.0" stroke="#18140a" stroke-width="1.4" opacity="0.4" stroke-linecap="round"></line><line x1="1465.5" y1="607.8" x2="1526.9" y2="607.8" stroke="#302828" stroke-width="5" opacity="1" stroke-linecap="round"></line><line x1="1465.5" y1="680.6" x2="1526.9" y2="680.6" stroke="#302828" stroke-width="5" opacity="1" stroke-linecap="round"></line><rect x="1351" y="604" width="34" height="34" fill="#322618" stroke="#18140a" stroke-width="2.4"></rect><rect x="1356" y="609" width="24" height="24" fill="#120e08"></rect><line x1="1368.0" y1="609.0" x2="1368.0" y2="633.0" stroke="#4a3c2c" stroke-width="1.8" opacity="0.6" stroke-linecap="round"></line><line x1="1356.0" y1="621.0" x2="1380.0" y2="621.0" stroke="#4a3c2c" stroke-width="1.8" opacity="0.6" stroke-linecap="round"></line><rect x="1655" y="604" width="34" height="34" fill="#322618" stroke="#18140a" stroke-width="2.4"></rect><rect x="1660" y="609" width="24" height="24" fill="#120e08"></rect><line x1="1672.0" y1="609.0" x2="1672.0" y2="633.0" stroke="#4a3c2c" stroke-width="1.8" opacity="0.6" stroke-linecap="round"></line><line x1="1660.0" y1="621.0" x2="1684.0" y2="621.0" stroke="#4a3c2c" stroke-width="1.8" opacity="0.6" stroke-linecap="round"></line><rect x="1743" y="599" width="10" height="131" fill="#3c3020" stroke="#18140a" stroke-width="1.8"></rect><path d="M1743,587 L1748,575 L1753,587 Z" fill="#3c3020" stroke="#18140a" stroke-width="1.5"></path><rect x="1822" y="599" width="10" height="131" fill="#3c3020" stroke="#18140a" stroke-width="1.8"></rect><path d="M1822,587 L1827,575 L1832,587 Z" fill="#3c3020" stroke="#18140a" stroke-width="1.5"></path><rect x="1901" y="599" width="10" height="131" fill="#3c3020" stroke="#18140a" stroke-width="1.8"></rect><path d="M1901,587 L1906,575 L1911,587 Z" fill="#3c3020" stroke="#18140a" stroke-width="1.5"></path><rect x="1748" y="685.5" width="158" height="7" fill="#5e5040" stroke="#18140a" stroke-width="1.5"></rect><rect x="1748" y="650.5" width="158" height="7" fill="#5e5040" stroke="#18140a" stroke-width="1.5"></rect><rect x="1748" y="615.5" width="158" height="7" fill="#5e5040" stroke="#18140a" stroke-width="1.5"></rect><path d="M1881.3,714.0 L1853.6,723.6 L1838.3,735.7 L1808.1,729.5 L1787.0,723.8 L1761.0,714.0 L1778.0,701.6 L1805.8,695.6 L1834.5,696.9 L1869.4,699.8 L1879.8,714.0 Z" fill="#362c14"></path><path d="M1838.9,710.0 L1821.4,717.0 L1808.3,722.6 L1788.5,723.0 L1769.5,718.9 L1760.9,710.0 L1764.5,699.6 L1787.1,695.2 L1809.9,695.3 L1829.3,700.6 L1837.9,710.0 Z" fill="#4a3c1c"></path><path d="M1888.3,689.2 q3.7,-13 2.2,-22" stroke="#a89438" stroke-width="2" fill="none" stroke-linecap="round" opacity="0.8"></path><path d="M1869.2,718.9 q-1.8,-13 -0.2,-22" stroke="#a89438" stroke-width="2" fill="none" stroke-linecap="round" opacity="0.8"></path><path d="M1765.2,694.5 q1.5,-13 3.3,-22" stroke="#a89438" stroke-width="2" fill="none" stroke-linecap="round" opacity="0.8"></path><path d="M1886.3,718.8 q-0.7,-13 1.5,-22" stroke="#a89438" stroke-width="2" fill="none" stroke-linecap="round" opacity="0.8"></path><path d="M1864.2,717.3 q-3.0,-13 -2.2,-22" stroke="#a89438" stroke-width="2" fill="none" stroke-linecap="round" opacity="0.8"></path><path d="M1840.5,690.6 q2.5,-13 1.7,-22" stroke="#a89438" stroke-width="2" fill="none" stroke-linecap="round" opacity="0.8"></path><path d="M1857.4,701.0 q-3.6,-13 -3.4,-22" stroke="#a89438" stroke-width="2" fill="none" stroke-linecap="round" opacity="0.8"></path><path d="M1859.4,707.5 q-0.4,-13 2.2,-22" stroke="#a89438" stroke-width="2" fill="none" stroke-linecap="round" opacity="0.8"></path><path d="M1807.2,712.6 q2.8,-13 1.5,-22" stroke="#a89438" stroke-width="2" fill="none" stroke-linecap="round" opacity="0.8"></path><path d="M1873.1,689.8 q3.8,-13 1.4,-22" stroke="#a89438" stroke-width="2" fill="none" stroke-linecap="round" opacity="0.8"></path><path d="M1508,724 C1506,688 1510,672 1520,670 C1530,672 1534,688 1532,724 Z" fill="#c8c0ae" stroke="#18140a" stroke-width="2.2"></path><ellipse cx="1520" cy="724" rx="12" ry="5" fill="#9a9488" stroke="#18140a" stroke-width="1.6"></ellipse><ellipse cx="1520" cy="671" rx="10" ry="4" fill="#c8c0ae" stroke="#18140a" stroke-width="1.6"></ellipse><line x1="1519.0" y1="670.0" x2="1519.0" y2="656.0" stroke="#18140a" stroke-width="3" opacity="1" stroke-linecap="round"></line><path d="M1544,724 C1542,688 1546,672 1556,670 C1566,672 1570,688 1568,724 Z" fill="#c8c0ae" stroke="#18140a" stroke-width="2.2"></path><ellipse cx="1556" cy="724" rx="12" ry="5" fill="#9a9488" stroke="#18140a" stroke-width="1.6"></ellipse><ellipse cx="1556" cy="671" rx="10" ry="4" fill="#c8c0ae" stroke="#18140a" stroke-width="1.6"></ellipse><line x1="1555.0" y1="670.0" x2="1555.0" y2="656.0" stroke="#18140a" stroke-width="3" opacity="1" stroke-linecap="round"></line><rect x="793" y="880" width="54" height="44" fill="#4a3c2c" stroke="#18140a" stroke-width="2.2"></rect><line x1="793.0" y1="890.0" x2="847.0" y2="890.0" stroke="#262010" stroke-width="1.5" opacity="0.6" stroke-linecap="round"></line><line x1="793.0" y1="901.0" x2="847.0" y2="901.0" stroke="#262010" stroke-width="1.5" opacity="0.6" stroke-linecap="round"></line><line x1="793.0" y1="912.0" x2="847.0" y2="912.0" stroke="#262010" stroke-width="1.5" opacity="0.6" stroke-linecap="round"></line><line x1="786.0" y1="880.0" x2="793.0" y2="775.0" stroke="#3c3020" stroke-width="7" opacity="1" stroke-linecap="round"></line><line x1="790.0" y1="775.0" x2="876.0" y2="805.0" stroke="#3c3020" stroke-width="6" opacity="1" stroke-linecap="round"></line><line x1="872.0" y1="805.0" x2="868.0" y2="865.0" stroke="#3c3020" stroke-width="3.5" opacity="1" stroke-linecap="round"></line><ellipse cx="592" cy="944" rx="11" ry="9.5" fill="#5c4a36" stroke="#18140a" stroke-width="1.6"></ellipse><ellipse cx="590.5" cy="943" rx="3.5" ry="3" fill="#3e3020"></ellipse><ellipse cx="614" cy="944" rx="11" ry="9.5" fill="#5c4a36" stroke="#18140a" stroke-width="1.6"></ellipse><ellipse cx="612.5" cy="943" rx="3.5" ry="3" fill="#3e3020"></ellipse><ellipse cx="636" cy="944" rx="11" ry="9.5" fill="#5c4a36" stroke="#18140a" stroke-width="1.6"></ellipse><ellipse cx="634.5" cy="943" rx="3.5" ry="3" fill="#3e3020"></ellipse><ellipse cx="658" cy="944" rx="11" ry="9.5" fill="#5c4a36" stroke="#18140a" stroke-width="1.6"></ellipse><ellipse cx="656.5" cy="943" rx="3.5" ry="3" fill="#3e3020"></ellipse><ellipse cx="680" cy="944" rx="11" ry="9.5" fill="#5c4a36" stroke="#18140a" stroke-width="1.6"></ellipse><ellipse cx="678.5" cy="943" rx="3.5" ry="3" fill="#3e3020"></ellipse><ellipse cx="702" cy="944" rx="11" ry="9.5" fill="#5c4a36" stroke="#18140a" stroke-width="1.6"></ellipse><ellipse cx="700.5" cy="943" rx="3.5" ry="3" fill="#3e3020"></ellipse><ellipse cx="603" cy="926" rx="11" ry="9.5" fill="#5c4a36" stroke="#18140a" stroke-width="1.6"></ellipse><ellipse cx="601.5" cy="925" rx="3.5" ry="3" fill="#3e3020"></ellipse><ellipse cx="625" cy="926" rx="11" ry="9.5" fill="#5c4a36" stroke="#18140a" stroke-width="1.6"></ellipse><ellipse cx="623.5" cy="925" rx="3.5" ry="3" fill="#3e3020"></ellipse><ellipse cx="647" cy="926" rx="11" ry="9.5" fill="#5c4a36" stroke="#18140a" stroke-width="1.6"></ellipse><ellipse cx="645.5" cy="925" rx="3.5" ry="3" fill="#3e3020"></ellipse><ellipse cx="669" cy="926" rx="11" ry="9.5" fill="#5c4a36" stroke="#18140a" stroke-width="1.6"></ellipse><ellipse cx="667.5" cy="925" rx="3.5" ry="3" fill="#3e3020"></ellipse><ellipse cx="691" cy="926" rx="11" ry="9.5" fill="#5c4a36" stroke="#18140a" stroke-width="1.6"></ellipse><ellipse cx="689.5" cy="925" rx="3.5" ry="3" fill="#3e3020"></ellipse><ellipse cx="614" cy="908" rx="11" ry="9.5" fill="#5c4a36" stroke="#18140a" stroke-width="1.6"></ellipse><ellipse cx="612.5" cy="907" rx="3.5" ry="3" fill="#3e3020"></ellipse><ellipse cx="636" cy="908" rx="11" ry="9.5" fill="#5c4a36" stroke="#18140a" stroke-width="1.6"></ellipse><ellipse cx="634.5" cy="907" rx="3.5" ry="3" fill="#3e3020"></ellipse><ellipse cx="658" cy="908" rx="11" ry="9.5" fill="#5c4a36" stroke="#18140a" stroke-width="1.6"></ellipse><ellipse cx="656.5" cy="907" rx="3.5" ry="3" fill="#3e3020"></ellipse><ellipse cx="680" cy="908" rx="11" ry="9.5" fill="#5c4a36" stroke="#18140a" stroke-width="1.6"></ellipse><ellipse cx="678.5" cy="907" rx="3.5" ry="3" fill="#3e3020"></ellipse><ellipse cx="625" cy="890" rx="11" ry="9.5" fill="#5c4a36" stroke="#18140a" stroke-width="1.6"></ellipse><ellipse cx="623.5" cy="889" rx="3.5" ry="3" fill="#3e3020"></ellipse><ellipse cx="647" cy="890" rx="11" ry="9.5" fill="#5c4a36" stroke="#18140a" stroke-width="1.6"></ellipse><ellipse cx="645.5" cy="889" rx="3.5" ry="3" fill="#3e3020"></ellipse><ellipse cx="669" cy="890" rx="11" ry="9.5" fill="#5c4a36" stroke="#18140a" stroke-width="1.6"></ellipse><ellipse cx="667.5" cy="889" rx="3.5" ry="3" fill="#3e3020"></ellipse><line x1="389.4" y1="970.0" x2="387.6" y2="916.0" stroke="#3c3020" stroke-width="7" opacity="1" stroke-linecap="round"></line><line x1="386.4" y1="916.0" x2="389.4" y2="904.0" stroke="#3c3020" stroke-width="5" opacity="1" stroke-linecap="round"></line><line x1="428.4" y1="970.0" x2="425.3" y2="916.0" stroke="#3c3020" stroke-width="7" opacity="1" stroke-linecap="round"></line><line x1="425.4" y1="916.0" x2="428.4" y2="904.0" stroke="#3c3020" stroke-width="5" opacity="1" stroke-linecap="round"></line><line x1="464.0" y1="970.0" x2="464.0" y2="916.0" stroke="#3c3020" stroke-width="7" opacity="1" stroke-linecap="round"></line><line x1="461.0" y1="916.0" x2="464.0" y2="904.0" stroke="#3c3020" stroke-width="5" opacity="1" stroke-linecap="round"></line><line x1="499.7" y1="970.0" x2="502.7" y2="916.0" stroke="#3c3020" stroke-width="7" opacity="1" stroke-linecap="round"></line><line x1="496.7" y1="916.0" x2="499.7" y2="904.0" stroke="#3c3020" stroke-width="5" opacity="1" stroke-linecap="round"></line><line x1="538.4" y1="970.0" x2="540.5" y2="916.0" stroke="#3c3020" stroke-width="7" opacity="1" stroke-linecap="round"></line><line x1="535.4" y1="916.0" x2="538.4" y2="904.0" stroke="#3c3020" stroke-width="5" opacity="1" stroke-linecap="round"></line><line x1="580.1" y1="970.0" x2="577.4" y2="916.0" stroke="#3c3020" stroke-width="7" opacity="1" stroke-linecap="round"></line><line x1="577.1" y1="916.0" x2="580.1" y2="904.0" stroke="#3c3020" stroke-width="5" opacity="1" stroke-linecap="round"></line><line x1="615.9" y1="970.0" x2="616.0" y2="916.0" stroke="#3c3020" stroke-width="7" opacity="1" stroke-linecap="round"></line><line x1="612.9" y1="916.0" x2="615.9" y2="904.0" stroke="#3c3020" stroke-width="5" opacity="1" stroke-linecap="round"></line><line x1="651.7" y1="970.0" x2="654.7" y2="916.0" stroke="#3c3020" stroke-width="7" opacity="1" stroke-linecap="round"></line><line x1="648.7" y1="916.0" x2="651.7" y2="904.0" stroke="#3c3020" stroke-width="5" opacity="1" stroke-linecap="round"></line><line x1="692.5" y1="970.0" x2="691.8" y2="916.0" stroke="#3c3020" stroke-width="7" opacity="1" stroke-linecap="round"></line><line x1="689.5" y1="916.0" x2="692.5" y2="904.0" stroke="#3c3020" stroke-width="5" opacity="1" stroke-linecap="round"></line><line x1="729.8" y1="970.0" x2="730.1" y2="916.0" stroke="#3c3020" stroke-width="7" opacity="1" stroke-linecap="round"></line><line x1="726.8" y1="916.0" x2="729.8" y2="904.0" stroke="#3c3020" stroke-width="5" opacity="1" stroke-linecap="round"></line><line x1="769.1" y1="970.0" x2="767.7" y2="916.0" stroke="#3c3020" stroke-width="7" opacity="1" stroke-linecap="round"></line><line x1="766.1" y1="916.0" x2="769.1" y2="904.0" stroke="#3c3020" stroke-width="5" opacity="1" stroke-linecap="round"></line><line x1="808.2" y1="970.0" x2="805.3" y2="916.0" stroke="#3c3020" stroke-width="7" opacity="1" stroke-linecap="round"></line><line x1="805.2" y1="916.0" x2="808.2" y2="904.0" stroke="#3c3020" stroke-width="5" opacity="1" stroke-linecap="round"></line><line x1="845.8" y1="970.0" x2="843.5" y2="916.0" stroke="#3c3020" stroke-width="7" opacity="1" stroke-linecap="round"></line><line x1="842.8" y1="916.0" x2="845.8" y2="904.0" stroke="#3c3020" stroke-width="5" opacity="1" stroke-linecap="round"></line><line x1="388.0" y1="962.0" x2="856.0" y2="960.9" stroke="#5e5040" stroke-width="5" opacity="0.9" stroke-linecap="round"></line><line x1="388.0" y1="944.0" x2="856.0" y2="945.9" stroke="#5e5040" stroke-width="5" opacity="0.9" stroke-linecap="round"></line><line x1="388.0" y1="926.0" x2="856.0" y2="925.3" stroke="#5e5040" stroke-width="5" opacity="0.9" stroke-linecap="round"></line><line x1="1073.6" y1="970.0" x2="1076.7" y2="916.0" stroke="#3c3020" stroke-width="7" opacity="1" stroke-linecap="round"></line><line x1="1070.6" y1="916.0" x2="1073.6" y2="904.0" stroke="#3c3020" stroke-width="5" opacity="1" stroke-linecap="round"></line><line x1="1112.7" y1="970.0" x2="1114.4" y2="916.0" stroke="#3c3020" stroke-width="7" opacity="1" stroke-linecap="round"></line><line x1="1109.7" y1="916.0" x2="1112.7" y2="904.0" stroke="#3c3020" stroke-width="5" opacity="1" stroke-linecap="round"></line><line x1="1152.5" y1="970.0" x2="1151.9" y2="916.0" stroke="#3c3020" stroke-width="7" opacity="1" stroke-linecap="round"></line><line x1="1149.5" y1="916.0" x2="1152.5" y2="904.0" stroke="#3c3020" stroke-width="5" opacity="1" stroke-linecap="round"></line><line x1="1189.2" y1="970.0" x2="1190.2" y2="916.0" stroke="#3c3020" stroke-width="7" opacity="1" stroke-linecap="round"></line><line x1="1186.2" y1="916.0" x2="1189.2" y2="904.0" stroke="#3c3020" stroke-width="5" opacity="1" stroke-linecap="round"></line><line x1="1227.4" y1="970.0" x2="1228.2" y2="916.0" stroke="#3c3020" stroke-width="7" opacity="1" stroke-linecap="round"></line><line x1="1224.4" y1="916.0" x2="1227.4" y2="904.0" stroke="#3c3020" stroke-width="5" opacity="1" stroke-linecap="round"></line><line x1="1266.2" y1="970.0" x2="1266.0" y2="916.0" stroke="#3c3020" stroke-width="7" opacity="1" stroke-linecap="round"></line><line x1="1263.2" y1="916.0" x2="1266.2" y2="904.0" stroke="#3c3020" stroke-width="5" opacity="1" stroke-linecap="round"></line><line x1="1306.0" y1="970.0" x2="1303.4" y2="916.0" stroke="#3c3020" stroke-width="7" opacity="1" stroke-linecap="round"></line><line x1="1303.0" y1="916.0" x2="1306.0" y2="904.0" stroke="#3c3020" stroke-width="5" opacity="1" stroke-linecap="round"></line><line x1="1342.1" y1="970.0" x2="1342.0" y2="916.0" stroke="#3c3020" stroke-width="7" opacity="1" stroke-linecap="round"></line><line x1="1339.1" y1="916.0" x2="1342.1" y2="904.0" stroke="#3c3020" stroke-width="5" opacity="1" stroke-linecap="round"></line><line x1="1381.6" y1="970.0" x2="1379.5" y2="916.0" stroke="#3c3020" stroke-width="7" opacity="1" stroke-linecap="round"></line><line x1="1378.6" y1="916.0" x2="1381.6" y2="904.0" stroke="#3c3020" stroke-width="5" opacity="1" stroke-linecap="round"></line><line x1="1416.2" y1="970.0" x2="1418.5" y2="916.0" stroke="#3c3020" stroke-width="7" opacity="1" stroke-linecap="round"></line><line x1="1413.2" y1="916.0" x2="1416.2" y2="904.0" stroke="#3c3020" stroke-width="5" opacity="1" stroke-linecap="round"></line><line x1="1457.7" y1="970.0" x2="1455.5" y2="916.0" stroke="#3c3020" stroke-width="7" opacity="1" stroke-linecap="round"></line><line x1="1454.7" y1="916.0" x2="1457.7" y2="904.0" stroke="#3c3020" stroke-width="5" opacity="1" stroke-linecap="round"></line><line x1="1493.4" y1="970.0" x2="1494.2" y2="916.0" stroke="#3c3020" stroke-width="7" opacity="1" stroke-linecap="round"></line><line x1="1490.4" y1="916.0" x2="1493.4" y2="904.0" stroke="#3c3020" stroke-width="5" opacity="1" stroke-linecap="round"></line><line x1="1076.0" y1="962.0" x2="1528.0" y2="963.7" stroke="#5e5040" stroke-width="5" opacity="0.9" stroke-linecap="round"></line><line x1="1076.0" y1="944.0" x2="1528.0" y2="942.3" stroke="#5e5040" stroke-width="5" opacity="0.9" stroke-linecap="round"></line><line x1="1076.0" y1="926.0" x2="1528.0" y2="927.4" stroke="#5e5040" stroke-width="5" opacity="0.9" stroke-linecap="round"></line><rect x="850" y="908" width="12" height="64" fill="#3c3020" stroke="#18140a" stroke-width="2"></rect><path d="M850,908 L856,896 L862,908 Z" fill="#3c3020" stroke="#18140a" stroke-width="1.5"></path><rect x="1070" y="908" width="12" height="64" fill="#3c3020" stroke="#18140a" stroke-width="2"></rect><path d="M1070,908 L1076,896 L1082,908 Z" fill="#3c3020" stroke="#18140a" stroke-width="1.5"></path><rect x="84" y="1042" width="8" height="16" fill="#3c3020"></rect><path d="M26.4,1038.8 Q34.1,1056.8 41.8,1038.8 Q49.5,1056.8 57.2,1038.8 Q64.9,1056.8 72.6,1038.8 Q80.3,1056.8 88.0,1038.8 Q95.7,1056.8 103.4,1038.8 Q111.1,1056.8 118.8,1038.8 Q126.5,1056.8 134.2,1038.8 Q141.9,1056.8 149.6,1038.8 L88.0,1002.8 Z" fill="#243628"></path><path d="M38.7,977.2 Q46.9,993.4 55.1,977.2 Q63.4,993.4 71.6,977.2 Q79.8,993.4 88.0,977.2 Q96.2,993.4 104.4,977.2 Q112.6,993.4 120.9,977.2 Q129.1,993.4 137.3,977.2 L88.0,944.7 Z" fill="#243628"></path><path d="M51.0,915.6 Q58.4,930.1 65.8,915.6 Q73.2,930.1 80.6,915.6 Q88.0,930.1 95.4,915.6 Q102.8,930.1 110.2,915.6 Q117.6,930.1 125.0,915.6 L88.0,886.6 Z" fill="#243628"></path><path d="M63.4,854.0 Q71.6,866.8 79.8,854.0 Q88.0,866.8 96.2,854.0 Q104.4,866.8 112.6,854.0 L88.0,828.5 Z" fill="#243628"></path><path d="M75.7,792.4 Q79.8,803.4 83.9,792.4 Q88.0,803.4 92.1,792.4 Q96.2,803.4 100.3,792.4 L88.0,770.4 Z" fill="#243628"></path><rect x="1848" y="1040" width="8" height="16" fill="#3c3020"></rect><path d="M1793.7,1037.4 Q1802.0,1055.4 1810.4,1037.4 Q1818.7,1055.4 1827.0,1037.4 Q1835.3,1055.4 1843.7,1037.4 Q1852.0,1055.4 1860.3,1037.4 Q1868.7,1055.4 1877.0,1037.4 Q1885.3,1055.4 1893.6,1037.4 Q1902.0,1055.4 1910.3,1037.4 L1852.0,1001.4 Z" fill="#243628"></path><path d="M1805.4,979.1 Q1813.1,995.4 1820.9,979.1 Q1828.7,995.4 1836.5,979.1 Q1844.2,995.4 1852.0,979.1 Q1859.8,995.4 1867.5,979.1 Q1875.3,995.4 1883.1,979.1 Q1890.9,995.4 1898.6,979.1 L1852.0,946.6 Z" fill="#243628"></path><path d="M1817.0,920.8 Q1825.8,935.3 1834.5,920.8 Q1843.3,935.3 1852.0,920.8 Q1860.7,935.3 1869.5,920.8 Q1878.2,935.3 1887.0,920.8 L1852.0,891.8 Z" fill="#243628"></path><path d="M1828.7,862.5 Q1836.5,875.3 1844.2,862.5 Q1852.0,875.3 1859.8,862.5 Q1867.5,875.3 1875.3,862.5 L1852.0,837.0 Z" fill="#243628"></path><path d="M1840.3,804.2 Q1844.2,815.2 1848.1,804.2 Q1852.0,815.2 1855.9,804.2 Q1859.8,815.2 1863.7,804.2 L1852.0,782.2 Z" fill="#243628"></path><rect x="1804" y="1060" width="8" height="16" fill="#3c3020"></rect><path d="M1759.6,1059.2 Q1767.7,1077.2 1775.7,1059.2 Q1783.8,1077.2 1791.9,1059.2 Q1799.9,1077.2 1808.0,1059.2 Q1816.1,1077.2 1824.1,1059.2 Q1832.2,1077.2 1840.3,1059.2 Q1848.3,1077.2 1856.4,1059.2 L1808.0,1023.2 Z" fill="#304836"></path><path d="M1769.3,1010.8 Q1777.0,1027.1 1784.8,1010.8 Q1792.5,1027.1 1800.3,1010.8 Q1808.0,1027.1 1815.7,1010.8 Q1823.5,1027.1 1831.2,1010.8 Q1839.0,1027.1 1846.7,1010.8 L1808.0,978.3 Z" fill="#304836"></path><path d="M1779.0,962.4 Q1786.2,976.9 1793.5,962.4 Q1800.7,976.9 1808.0,962.4 Q1815.3,976.9 1822.5,962.4 Q1829.8,976.9 1837.0,962.4 L1808.0,933.4 Z" fill="#304836"></path><path d="M1788.6,914.0 Q1795.1,926.8 1801.5,914.0 Q1808.0,926.8 1814.5,914.0 Q1820.9,926.8 1827.4,914.0 L1808.0,888.5 Z" fill="#304836"></path><path d="M1798.3,865.6 Q1801.5,876.6 1804.8,865.6 Q1808.0,876.6 1811.2,865.6 Q1814.5,876.6 1817.7,865.6 L1808.0,843.6 Z" fill="#304836"></path><path d="M1638.9,903.3 L1638.6,905.7 L1633.8,907.4 L1627.0,907.4 L1622.2,905.7 L1621.4,903.3 L1620.6,900.4 L1626.8,898.9 L1633.2,899.8 L1638.6,900.9 L1640.6,903.3 Z" fill="#6e8244"></path><path d="M1157.3,918.2 L1155.2,919.5 L1152.8,920.7 L1149.1,920.1 L1145.4,919.7 L1145.4,918.2 L1145.7,916.7 L1149.3,916.4 L1152.6,915.8 L1154.4,917.1 L1157.1,918.2 Z" fill="#6e8244"></path><path d="M1445.0,1036.7 L1444.5,1038.3 L1441.1,1039.2 L1437.3,1039.0 L1434.3,1038.1 L1432.8,1036.7 L1435.4,1035.6 L1437.5,1034.7 L1440.5,1035.0 L1444.3,1035.2 L1445.0,1036.7 Z" fill="#6e8244"></path><path d="M266.0,1048.1 L263.8,1049.7 L260.6,1050.8 L255.9,1051.0 L253.8,1049.4 L252.7,1048.1 L253.6,1046.7 L256.1,1045.4 L260.5,1045.3 L262.9,1046.7 L264.9,1048.1 Z" fill="#6e8244"></path><path d="M415.4,1044.6 L415.0,1046.0 L411.8,1046.7 L408.7,1046.3 L405.7,1045.9 L405.1,1044.6 L406.0,1043.4 L408.2,1042.3 L411.6,1042.8 L413.5,1043.6 L415.0,1044.6 Z" fill="#5e7035"></path><path d="M1629.3,990.4 L1628.4,992.5 L1623.2,992.9 L1619.1,992.9 L1615.1,992.1 L1614.0,990.4 L1615.4,988.7 L1618.2,986.7 L1623.4,987.6 L1627.2,988.6 L1629.4,990.3 Z" fill="#5e7035"></path><path d="M1745.3,986.0 L1744.2,988.1 L1740.3,990.3 L1734.1,989.4 L1727.5,988.7 L1725.6,986.0 L1728.1,983.5 L1734.3,982.9 L1740.2,981.9 L1744.0,983.9 L1748.8,986.0 Z" fill="#5e7035"></path><path d="M1708.2,1027.5 L1707.4,1029.3 L1704.0,1030.6 L1699.0,1030.6 L1695.3,1029.4 L1693.0,1027.5 L1695.9,1025.9 L1698.8,1024.2 L1704.3,1024.1 L1708.4,1025.5 L1708.0,1027.5 Z" fill="#6e8244"></path><path d="M1153.3,934.2 L1152.1,935.6 L1149.2,936.4 L1145.2,936.9 L1142.3,935.7 L1140.5,934.2 L1143.2,933.0 L1145.4,931.8 L1149.2,932.0 L1152.5,932.7 L1153.5,934.2 Z" fill="#5e7035"></path><path d="M1112.8,880.0 L1109.8,881.9 L1106.2,883.9 L1100.2,883.5 L1093.9,882.6 L1090.5,880.0 L1095.4,877.8 L1100.0,876.3 L1106.5,875.8 L1110.5,877.8 L1114.6,880.0 Z" fill="#6e8244"></path><path d="M1535.1,1007.7 L1534.2,1009.7 L1529.9,1011.0 L1524.4,1011.2 L1519.4,1010.0 L1519.2,1007.7 L1521.5,1006.0 L1525.1,1005.0 L1529.3,1005.2 L1532.9,1006.0 L1536.2,1007.7 Z" fill="#6e8244"></path><path d="M579.9,891.3 L578.2,892.5 L575.9,893.6 L572.5,893.3 L567.8,893.1 L568.4,891.3 L569.2,889.9 L572.0,888.8 L575.8,889.2 L580.0,889.6 L579.5,891.3 Z" fill="#6e8244"></path><path d="M31.6,954.8 L27.3,956.8 L23.2,958.2 L16.4,959.7 L13.4,956.9 L8.5,954.8 L11.7,952.3 L17.6,951.4 L24.0,950.4 L28.2,952.6 L30.5,954.8 Z" fill="#6e8244"></path><path d="M1334.0,889.4 L1333.3,891.9 L1327.4,893.1 L1321.4,893.0 L1315.0,892.1 L1315.3,889.4 L1317.9,887.5 L1321.2,885.4 L1326.9,886.2 L1332.3,887.1 L1332.5,889.4 Z" fill="#6e8244"></path><path d="M141.6,974.0 L141.0,975.5 L138.1,976.6 L134.4,975.9 L131.3,975.3 L129.3,974.0 L131.5,972.7 L134.3,971.9 L137.5,972.1 L140.1,972.8 L141.2,974.0 Z" fill="#6e8244"></path><path d="M792.1,920.3 L790.6,922.1 L786.2,922.4 L782.9,922.3 L778.5,922.1 L779.2,920.3 L779.7,918.9 L782.9,918.3 L786.2,918.3 L789.0,919.1 L790.0,920.3 Z" fill="#5e7035"></path><path d="M122.7,955.9 L122.9,957.9 L117.9,958.2 L114.2,958.1 L110.0,957.6 L108.6,955.9 L109.6,954.0 L113.7,953.1 L117.8,953.6 L122.6,954.0 L121.6,955.9 Z" fill="#6e8244"></path><path d="M986.6,1040.3 L985.5,1041.8 L982.1,1042.4 L978.7,1042.2 L976.1,1041.5 L975.1,1040.3 L975.5,1038.9 L978.5,1038.1 L982.0,1038.2 L984.9,1038.9 L986.8,1040.3 Z" fill="#5e7035"></path><path d="M436.5,916.0 L435.9,917.0 L433.6,917.5 L430.7,918.0 L428.3,917.2 L427.9,916.0 L428.8,915.0 L430.6,913.8 L434.0,913.9 L436.0,914.9 L438.0,916.0 Z" fill="#6e8244"></path><path d="M801.2,914.2 L801.9,916.1 L797.4,916.7 L792.9,917.2 L789.6,915.8 L787.0,914.2 L790.7,912.8 L793.6,912.0 L797.1,912.0 L800.0,912.8 L803.6,914.2 Z" fill="#6e8244"></path><path d="M1667.8,1000.1 L1665.0,1002.4 L1659.7,1003.1 L1654.5,1003.6 L1648.9,1002.6 L1649.9,1000.1 L1650.0,998.0 L1653.9,995.9 L1659.7,997.2 L1666.4,997.5 L1664.8,1000.1 Z" fill="#5e7035"></path><path d="M398.3,916.5 L395.7,918.8 L391.1,920.3 L384.8,920.5 L380.2,918.8 L378.9,916.5 L380.5,914.3 L385.3,913.1 L390.8,913.0 L395.6,914.3 L396.9,916.5 Z" fill="#6e8244"></path><path d="M375.9,925.4 L374.7,927.0 L371.6,928.2 L367.4,927.8 L363.1,927.2 L361.3,925.4 L362.9,923.5 L367.2,922.8 L371.6,922.7 L374.5,923.9 L375.4,925.4 Z" fill="#5e7035"></path><path d="M1253.3,881.7 L1252.2,883.1 L1249.0,883.8 L1245.5,883.8 L1243.5,882.7 L1240.6,881.7 L1242.1,880.2 L1245.8,879.9 L1249.1,879.3 L1252.8,880.0 L1254.0,881.7 Z" fill="#5e7035"></path><path d="M400.9,945.0 L400.0,946.9 L395.5,947.7 L390.2,948.9 L386.6,946.9 L385.4,945.0 L387.4,943.3 L390.4,941.4 L395.4,942.4 L399.1,943.3 L401.8,945.0 Z" fill="#5e7035"></path><path d="M494.7,884.8 L492.0,887.0 L487.0,888.2 L481.8,887.7 L477.6,886.7 L474.6,884.8 L475.9,882.3 L480.7,880.4 L486.6,881.8 L491.5,882.7 L493.3,884.8 Z" fill="#5e7035"></path><path d="M45.3,907.0 L45.3,909.3 L40.3,910.5 L35.3,909.6 L31.0,908.9 L30.5,907.0 L31.7,905.4 L35.0,903.9 L39.9,904.1 L43.3,905.3 L45.2,907.0 Z" fill="#6e8244"></path><path d="M690.5,948.0 L688.5,949.3 L686.1,950.5 L682.4,950.2 L679.2,949.5 L678.7,948.0 L679.8,946.8 L682.5,946.0 L685.6,946.3 L689.2,946.6 L689.4,948.0 Z" fill="#5e7035"></path><path d="M78.2,900.8 L76.7,903.0 L71.7,903.9 L66.8,903.6 L59.9,903.5 L57.8,900.8 L60.4,898.3 L66.8,898.0 L72.6,896.5 L75.2,899.0 L79.8,900.8 Z" fill="#6e8244"></path><path d="M303.1,1036.0 L301.7,1037.6 L298.8,1039.0 L294.7,1038.2 L290.7,1037.7 L289.8,1036.0 L292.0,1034.7 L294.2,1033.3 L298.8,1033.1 L301.2,1034.7 L302.5,1036.0 Z" fill="#6e8244"></path></svg>