<svg xmlns="http://www.w3.org/2000/svg" viewBox="0 0 720 726" width="720" height="726">
<defs>
<linearGradient id="soil" x1="0" y1="0" x2="0" y2="1">
<stop offset="0" stop-color="#7a6346"></stop><stop offset="1" stop-color="#574733"></stop>
</linearGradient>
<linearGradient id="soilLight" x1="0" y1="0" x2="0" y2="1">
<stop offset="0" stop-color="#8c7350"></stop><stop offset="1" stop-color="#6a563d"></stop>
</linearGradient>
<filter id="rough" x="-18%" y="-18%" width="136%" height="136%">
<feTurbulence type="fractalNoise" baseFrequency="0.012 0.014" numOctaves="2" seed="7" result="n"></feTurbulence>
<feDisplacementMap in="SourceGraphic" in2="n" scale="2.4" xChannelSelector="R" yChannelSelector="G"></feDisplacementMap>
</filter>

<g id="stoneGray">
<path d="M-28,5 C-30,-8 -17,-18 -1,-19 C15,-20 29,-11 29,3 C28,15 13,21 -3,21 C-18,21 -27,14 -28,5 Z" fill="#6d6d6d" stroke="#3b2f23" stroke-width="2.4" stroke-linejoin="round"></path>
<path d="M-28,5 C-27,14 -18,21 -3,21 C13,21 28,15 29,3 C23,12 7,16 -11,15 C-21,14 -27,10 -28,5 Z" fill="#585858" opacity="0.5"></path>
<path d="M-19,-4 C-19,-12 -7,-16 4,-15 C15,-14 21,-9 20,-3 C11,-8 -7,-8 -19,-4 Z" fill="#8c8c8c" opacity="0.85"></path>
<path d="M-1,-17 C-4,-6 2,4 -2,18" fill="none" stroke="#3b2f23" stroke-width="1.3" opacity="0.38"></path>
</g>
<g id="stoneTan">
<path d="M-28,5 C-30,-8 -17,-18 -1,-19 C15,-20 29,-11 29,3 C28,15 13,21 -3,21 C-18,21 -27,14 -28,5 Z" fill="#7c7060" stroke="#3b2f23" stroke-width="2.4" stroke-linejoin="round"></path>
<path d="M-28,5 C-27,14 -18,21 -3,21 C13,21 28,15 29,3 C23,12 7,16 -11,15 C-21,14 -27,10 -28,5 Z" fill="#5e5347" opacity="0.5"></path>
<path d="M-19,-4 C-19,-12 -7,-16 4,-15 C15,-14 21,-9 20,-3 C11,-8 -7,-8 -19,-4 Z" fill="#998b79" opacity="0.85"></path>
<path d="M-1,-17 C-4,-6 2,4 -2,18" fill="none" stroke="#3b2f23" stroke-width="1.3" opacity="0.38"></path>
</g>
<g id="stoneRed">
<path d="M-28,5 C-30,-8 -17,-18 -1,-19 C15,-20 29,-11 29,3 C28,15 13,21 -3,21 C-18,21 -27,14 -28,5 Z" fill="#8a6f5a" stroke="#3b2f23" stroke-width="2.4" stroke-linejoin="round"></path>
<path d="M-28,5 C-27,14 -18,21 -3,21 C13,21 28,15 29,3 C23,12 7,16 -11,15 C-21,14 -27,10 -28,5 Z" fill="#6d5645" opacity="0.5"></path>
<path d="M-19,-4 C-19,-12 -7,-16 4,-15 C15,-14 21,-9 20,-3 C11,-8 -7,-8 -19,-4 Z" fill="#a98a72" opacity="0.85"></path>
<path d="M-1,-17 C-4,-6 2,4 -2,18" fill="none" stroke="#3b2f23" stroke-width="1.3" opacity="0.38"></path>
</g>

<symbol id="patch-boulder" viewBox="0 0 240 170">
<g filter="url(#rough)">
<path d="M44,122 C36,104 64,92 92,89 C120,86 148,88 176,94 C204,100 204,118 196,126 C184,138 150,142 120,142 C90,142 56,138 44,122 Z" fill="url(#soil)" stroke="#3b2f23" stroke-width="2.4" stroke-linejoin="round"></path>
<path d="M64,116 C92,122 150,122 180,114" fill="none" stroke="#46371f" stroke-width="2" opacity="0.4"></path>
<use href="#stoneGray" transform="translate(120,90) scale(2.15)"></use>
<ellipse cx="104" cy="74" rx="13" ry="6" fill="#4d6b3f" opacity="0.42"></ellipse>
<ellipse cx="146" cy="92" rx="9" ry="5" fill="#4d6b3f" opacity="0.3"></ellipse>
<path d="M48,116 C66,134 120,140 120,140 C120,140 176,134 194,114 C178,128 150,133 120,133 C90,133 64,128 48,116 Z" fill="url(#soil)" stroke="#3b2f23" stroke-width="2.2" stroke-linejoin="round"></path>
</g>
</symbol>

<symbol id="patch-cluster" viewBox="0 0 240 170">
<g filter="url(#rough)">
<path d="M48,122 C40,105 66,93 94,90 C120,87 146,89 172,95 C200,101 200,118 192,126 C180,138 150,142 120,142 C90,142 60,138 48,122 Z" fill="url(#soil)" stroke="#3b2f23" stroke-width="2.4" stroke-linejoin="round"></path>
<path d="M60,118 C92,124 150,124 182,116" fill="none" stroke="#46371f" stroke-width="2" opacity="0.38"></path>
<use href="#stoneRed" transform="translate(140,98) scale(1.5)"></use>
<use href="#stoneGray" transform="translate(96,107) scale(1.2)"></use>
<use href="#stoneTan" transform="translate(124,120) scale(0.95)"></use>
<ellipse cx="74" cy="128" rx="6" ry="3" fill="#46371f" opacity="0.5"></ellipse>
<ellipse cx="170" cy="126" rx="5" ry="2.6" fill="#46371f" opacity="0.45"></ellipse>
</g>
</symbol>

<symbol id="patch-pebbles" viewBox="0 0 240 170">
<g filter="url(#rough)">
<path d="M48,122 C40,105 66,93 94,90 C120,87 146,89 172,95 C200,101 200,118 192,126 C180,138 150,142 120,142 C90,142 60,138 48,122 Z" fill="url(#soil)" stroke="#3b2f23" stroke-width="2.4" stroke-linejoin="round"></path>
<path d="M62,116 C92,122 150,122 180,114" fill="none" stroke="#46371f" stroke-width="2" opacity="0.36"></path>
<use href="#stoneTan" transform="translate(118,102) scale(0.62)"></use>
<use href="#stoneRed" transform="translate(134,110) scale(0.5)"></use>
<use href="#stoneGray" transform="translate(86,110) scale(0.56)"></use>
<use href="#stoneGray" transform="translate(154,118) scale(0.44)"></use>
<use href="#stoneRed" transform="translate(102,122) scale(0.4)"></use>
<use href="#stoneTan" transform="translate(146,98) scale(0.46)"></use>
<use href="#stoneGray" transform="translate(120,124) scale(0.42)"></use>
</g>
</symbol>

<symbol id="patch-slab" viewBox="0 0 240 170">
<g filter="url(#rough)">
<path d="M44,122 C36,105 64,93 92,90 C120,87 148,89 176,95 C204,101 204,118 196,126 C184,138 150,142 120,142 C90,142 56,138 44,122 Z" fill="url(#soil)" stroke="#3b2f23" stroke-width="2.4" stroke-linejoin="round"></path>
<g transform="translate(120,106)">
<path d="M-52,8 L-44,-10 L18,-16 L52,-2 L44,16 L-36,20 Z" fill="#7c7264" stroke="#3b2f23" stroke-width="2.4" stroke-linejoin="round"></path>
<path d="M-44,-9 L17,-15 L48,-2 L-30,5 Z" fill="#968a78" opacity="0.85"></path>
<path d="M-50,9 C-22,17 30,15 50,-1 C47,9 35,16 -34,20 C-46,19 -51,14 -50,9 Z" fill="#5f554a" opacity="0.5"></path>
<path d="M-20,-13 C-22,-2 -16,8 -20,18" fill="none" stroke="#3b2f23" stroke-width="1.4" opacity="0.4"></path>
<path d="M14,-15 C12,-4 16,6 12,16" fill="none" stroke="#3b2f23" stroke-width="1.2" opacity="0.32"></path>
</g>
</g>
</symbol>

<symbol id="patch-root" viewBox="0 0 240 170">
<g filter="url(#rough)">
<path d="M44,122 C36,105 64,93 92,90 C120,87 148,89 176,95 C204,101 204,118 196,126 C184,138 150,142 120,142 C90,142 56,138 44,122 Z" fill="url(#soil)" stroke="#3b2f23" stroke-width="2.4" stroke-linejoin="round"></path>
<path d="M58,126 C70,102 96,98 112,108 C128,118 150,106 170,118" fill="none" stroke="#3b2f23" stroke-width="19" stroke-linecap="round"></path>
<path d="M74,130 C86,114 106,120 122,112 C138,104 160,114 178,106" fill="none" stroke="#3b2f23" stroke-width="17" stroke-linecap="round"></path>
<path d="M58,126 C70,102 96,98 112,108 C128,118 150,106 170,118" fill="none" stroke="#5a4a3a" stroke-width="14" stroke-linecap="round"></path>
<path d="M74,130 C86,114 106,120 122,112 C138,104 160,114 178,106" fill="none" stroke="#6a563d" stroke-width="12" stroke-linecap="round"></path>
<path d="M60,124 C72,103 96,100 110,108" fill="none" stroke="#83704f" stroke-width="4" stroke-linecap="round" opacity="0.5"></path>
<path d="M78,128 C88,116 104,120 118,114" fill="none" stroke="#83704f" stroke-width="3.5" stroke-linecap="round" opacity="0.45"></path>
<ellipse cx="170" cy="118" rx="9" ry="8" fill="#5a4a3a" stroke="#3b2f23" stroke-width="2.4"></ellipse>
<ellipse cx="178" cy="106" rx="8" ry="7" fill="#6a563d" stroke="#3b2f23" stroke-width="2.4"></ellipse>
</g>
</symbol>

<symbol id="patch-stump" viewBox="0 0 240 170">
<g filter="url(#rough)">
<path d="M50,124 C42,108 66,97 94,94 C120,91 146,93 172,98 C198,104 198,120 190,128 C178,138 150,142 120,142 C90,142 62,138 50,124 Z" fill="url(#soil)" stroke="#3b2f23" stroke-width="2.4" stroke-linejoin="round"></path>
<path d="M86,100 C86,90 154,90 154,100 L154,126 C154,136 86,136 86,126 Z" fill="#5b4327" stroke="#3b2f23" stroke-width="2.4" stroke-linejoin="round"></path>
<path d="M98,114 C98,120 98,128 98,132" stroke="#3b2f23" stroke-width="1.4" opacity="0.32" fill="none"></path>
<path d="M120,116 C120,122 120,130 120,134" stroke="#3b2f23" stroke-width="1.4" opacity="0.32" fill="none"></path>
<path d="M142,114 C142,120 142,128 142,132" stroke="#3b2f23" stroke-width="1.4" opacity="0.32" fill="none"></path>
<ellipse cx="120" cy="100" rx="34" ry="13" fill="#9c8568" stroke="#3b2f23" stroke-width="2.4"></ellipse>
<ellipse cx="120" cy="100" rx="24" ry="9" fill="none" stroke="#6b5942" stroke-width="1.6" opacity="0.7"></ellipse>
<ellipse cx="120" cy="100" rx="14" ry="5.2" fill="none" stroke="#6b5942" stroke-width="1.4" opacity="0.6"></ellipse>
<ellipse cx="120" cy="100" rx="5" ry="2" fill="#6b5942" opacity="0.6"></ellipse>
<path d="M120,100 L150,94" stroke="#6b5942" stroke-width="1.4" opacity="0.55"></path>
<path d="M120,100 L96,108" stroke="#6b5942" stroke-width="1.4" opacity="0.5"></path>
</g>
</symbol>

<symbol id="patch-weeds" viewBox="0 0 240 170">
<g filter="url(#rough)">
<path d="M48,122 C40,105 66,93 94,90 C120,87 146,89 172,95 C200,101 200,118 192,126 C180,138 150,142 120,142 C90,142 60,138 48,122 Z" fill="url(#soil)" stroke="#3b2f23" stroke-width="2.4" stroke-linejoin="round"></path>
<path d="M118,128 C112,104 106,86 100,70" fill="none" stroke="#3a5230" stroke-width="6" stroke-linecap="round"></path>
<path d="M122,128 C126,102 132,86 140,72" fill="none" stroke="#3a5230" stroke-width="6" stroke-linecap="round"></path>
<path d="M120,128 C120,100 120,82 122,64" fill="none" stroke="#3a5230" stroke-width="6" stroke-linecap="round"></path>
<path d="M118,128 C112,104 106,86 100,70" fill="none" stroke="#52723f" stroke-width="3.4" stroke-linecap="round"></path>
<path d="M122,128 C126,102 132,86 140,72" fill="none" stroke="#52723f" stroke-width="3.4" stroke-linecap="round"></path>
<path d="M120,128 C120,100 120,82 122,64" fill="none" stroke="#52723f" stroke-width="3.4" stroke-linecap="round"></path>
<path d="M119,128 C108,116 92,110 82,98" fill="none" stroke="#3a5230" stroke-width="5" stroke-linecap="round"></path>
<path d="M121,128 C132,116 148,112 160,102" fill="none" stroke="#3a5230" stroke-width="5" stroke-linecap="round"></path>
<path d="M119,128 C108,116 92,110 82,98" fill="none" stroke="#52723f" stroke-width="3" stroke-linecap="round"></path>
<path d="M121,128 C132,116 148,112 160,102" fill="none" stroke="#52723f" stroke-width="3" stroke-linecap="round"></path>
<path d="M108,96 C100,90 92,92 88,98 C96,100 104,100 108,96 Z" fill="#557544" stroke="#3a5230" stroke-width="1.4"></path>
<path d="M132,98 C140,92 148,94 152,100 C144,102 136,102 132,98 Z" fill="#557544" stroke="#3a5230" stroke-width="1.4"></path>
<ellipse cx="100" cy="68" rx="6" ry="9" fill="#a98f5e" stroke="#3b2f23" stroke-width="1.6"></ellipse>
<ellipse cx="122" cy="62" rx="6" ry="9" fill="#b9a06a" stroke="#3b2f23" stroke-width="1.6"></ellipse>
<ellipse cx="141" cy="70" rx="5.5" ry="8" fill="#a98f5e" stroke="#3b2f23" stroke-width="1.6"></ellipse>
</g>
</symbol>

<symbol id="patch-clods" viewBox="0 0 240 170">
<g filter="url(#rough)">
<path d="M48,122 C40,105 66,93 94,90 C120,87 146,89 172,95 C200,101 200,118 192,126 C180,138 150,142 120,142 C90,142 60,138 48,122 Z" fill="url(#soil)" stroke="#3b2f23" stroke-width="2.4" stroke-linejoin="round"></path>
<g transform="translate(96,112)">
<path d="M-18,8 L-21,-6 L-5,-13 L13,-9 L19,5 L4,13 Z" fill="#4a3b2a" stroke="#3b2f23" stroke-width="2.2" stroke-linejoin="round"></path>
<path d="M-19,-5 L-5,-12 L12,-8 L-2,-1 Z" fill="#6a563d" opacity="0.7"></path>
</g>
<g transform="translate(134,104)">
<path d="M-16,7 L-19,-5 L-3,-12 L14,-8 L17,5 L2,12 Z" fill="#4a3b2a" stroke="#3b2f23" stroke-width="2.2" stroke-linejoin="round"></path>
<path d="M-17,-4 L-3,-11 L13,-7 L-1,0 Z" fill="#6a563d" opacity="0.7"></path>
</g>
<g transform="translate(118,122) scale(1.1)">
<path d="M-18,8 L-21,-6 L-3,-13 L15,-8 L19,6 L2,13 Z" fill="#4a3b2a" stroke="#3b2f23" stroke-width="2.2" stroke-linejoin="round"></path>
<path d="M-19,-5 L-3,-12 L14,-7 L-1,0 Z" fill="#6a563d" opacity="0.7"></path>
</g>
</g>
</symbol>

<symbol id="patch-cleared" viewBox="0 0 240 170">
<g filter="url(#rough)">
<path d="M48,122 C40,105 66,93 94,90 C120,87 146,89 172,95 C200,101 200,118 192,126 C180,138 150,142 120,142 C90,142 60,138 48,122 Z" fill="url(#soilLight)" stroke="#3b2f23" stroke-width="2.4" stroke-linejoin="round"></path>
<path d="M58,104 C92,98 150,98 184,104" fill="none" stroke="#46371f" stroke-width="2.4" opacity="0.4"></path>
<path d="M54,114 C90,108 152,108 188,114" fill="none" stroke="#46371f" stroke-width="2.4" opacity="0.4"></path>
<path d="M52,124 C90,118 152,118 190,124" fill="none" stroke="#46371f" stroke-width="2.4" opacity="0.4"></path>
<path d="M56,132 C92,128 150,128 186,132" fill="none" stroke="#46371f" stroke-width="2.2" opacity="0.32"></path>
<path d="M60,103 C92,97 150,97 182,103" fill="none" stroke="#9a8260" stroke-width="1.6" opacity="0.5"></path>
</g>
</symbol>
<symbol id="patch-untilled" viewBox="0 0 240 170">
<g filter="url(#rough)">
<path d="M48,122 C40,105 66,93 94,90 C120,87 146,89 172,95 C200,101 200,118 192,126 C180,138 150,142 120,142 C90,142 60,138 48,122 Z" fill="url(#soil)" stroke="#3b2f23" stroke-width="2.4" stroke-linejoin="round"></path>
<path d="M68,106 C84,100 104,103 113,112 C100,118 80,117 68,106 Z" fill="#4a3b2a" opacity="0.42"></path>
<path d="M130,100 C147,96 165,101 172,109 C159,115 141,112 130,100 Z" fill="#4a3b2a" opacity="0.38"></path>
<path d="M94,122 C111,118 131,121 141,127 C127,133 106,132 94,122 Z" fill="#4a3b2a" opacity="0.33"></path>
<g stroke-linecap="round" fill="none">
<g transform="translate(74,116)"><path d="M0,0 c-1,-6 -3,-10 -6,-14" stroke="#3a5230" stroke-width="2.6"></path><path d="M0,0 c0,-7 0,-12 1,-16" stroke="#52723f" stroke-width="2.4"></path><path d="M0,0 c1,-6 4,-10 7,-13" stroke="#3a5230" stroke-width="2.4"></path></g>
<g transform="translate(102,110)"><path d="M0,0 c-1,-6 -3,-10 -6,-14" stroke="#3a5230" stroke-width="2.6"></path><path d="M0,0 c0,-7 0,-12 1,-16" stroke="#52723f" stroke-width="2.4"></path><path d="M0,0 c1,-6 4,-10 7,-13" stroke="#3a5230" stroke-width="2.4"></path></g>
<g transform="translate(128,118)"><path d="M0,0 c-1,-6 -3,-10 -6,-14" stroke="#3a5230" stroke-width="2.6"></path><path d="M0,0 c0,-7 0,-12 1,-16" stroke="#52723f" stroke-width="2.4"></path><path d="M0,0 c1,-6 4,-10 7,-13" stroke="#3a5230" stroke-width="2.4"></path></g>
<g transform="translate(152,112)"><path d="M0,0 c-1,-6 -3,-10 -6,-14" stroke="#3a5230" stroke-width="2.6"></path><path d="M0,0 c0,-7 0,-12 1,-16" stroke="#52723f" stroke-width="2.4"></path><path d="M0,0 c1,-6 4,-10 7,-13" stroke="#3a5230" stroke-width="2.4"></path></g>
<g transform="translate(160,122)"><path d="M0,0 c-1,-6 -3,-10 -6,-14" stroke="#3a5230" stroke-width="2.6"></path><path d="M0,0 c0,-7 0,-12 1,-16" stroke="#52723f" stroke-width="2.4"></path><path d="M0,0 c1,-6 4,-10 7,-13" stroke="#3a5230" stroke-width="2.4"></path></g>
<g transform="translate(88,126)"><path d="M0,0 c-1,-6 -3,-10 -6,-14" stroke="#3a5230" stroke-width="2.6"></path><path d="M0,0 c0,-7 0,-12 1,-16" stroke="#52723f" stroke-width="2.4"></path><path d="M0,0 c1,-6 4,-10 7,-13" stroke="#3a5230" stroke-width="2.4"></path></g>
</g>
</g>
</symbol>
</defs>


<use href="#patch-untilled" x="0" y="6" width="240" height="170"></use>
<use href="#patch-boulder" x="240" y="6" width="240" height="170"></use>
<use href="#patch-cluster" x="480" y="6" width="240" height="170"></use>
<use href="#patch-pebbles" x="0" y="186" width="240" height="170"></use>
<use href="#patch-slab" x="240" y="186" width="240" height="170"></use>
<use href="#patch-root" x="480" y="186" width="240" height="170"></use>
<use href="#patch-stump" x="0" y="366" width="240" height="170"></use>
<use href="#patch-weeds" x="240" y="366" width="240" height="170"></use>
<use href="#patch-clods" x="480" y="366" width="240" height="170"></use>
<use href="#patch-cleared" x="0" y="546" width="240" height="170"></use>
</svg>