<svg xmlns="http://www.w3.org/2000/svg" width="1580" height="810" font-family="Georgia, serif">
<rect width="1580" height="810" fill="#f5f0e6"/>
<text x="60" y="34" font-size="22" fill="#3a2f25" font-weight="bold">Umpipiha — farm layout, v4 (topdown schematic)</text>
<text x="60" y="56" font-size="13" fill="#6b5d4a">Tighter pihapiiri; riihi on the north side of its path, at the rye field's edge.</text>
<rect x="60" y="90" width="1140" height="660" fill="#9fb08a"/>
<polygon points="468,372 480,570 312,642 228,534 270,372" fill="#dce8c8" stroke="#7c8f63" stroke-width="1.5"/>
<text x="351.6" y="498" font-size="11" fill="#5a6b46" text-anchor="middle">Pelto — ruis (rye)</text>
<polygon points="648,378 780,402 756,534 660,522" fill="#dce8c8" stroke="#7c8f63" stroke-width="1.5"/>
<text x="708" y="462" font-size="11" fill="#5a6b46" text-anchor="middle">Pelto — kaura (oats)</text>
<polygon points="516,372 630,384 612,492 528,480" fill="#dce8c8" stroke="#7c8f63" stroke-width="1.5"/>
<text x="571.5" y="432" font-size="11" fill="#5a6b46" text-anchor="middle">Nauris</text>
<polygon points="810,414 1092,474 1050,666 828,642 792,522" fill="#dce8c8" stroke="#7c8f63" stroke-width="1.5"/>
<text x="914.4000000000001" y="543.5999999999999" font-size="11" fill="#5a6b46" text-anchor="middle">Pelto — ohra (barley)</text>
<polygon points="738,360 960,360 960,150 738,150" fill="#e3edd2" stroke="#9aab83" stroke-width="1.5"/>
<text x="846" y="192" font-size="11" fill="#5a6b46" text-anchor="middle">Niitty — kesälaidun (navetalta)</text>
<polyline points="597,306 540,330 498,354 498,462" fill="none" stroke="#efe6d3" stroke-width="6" stroke-linecap="round"/>
<polyline points="597,306 540,330 498,354 498,462" fill="none" stroke="#8a6a44" stroke-width="2" stroke-dasharray="2 5"/>
<polyline points="498,354 360,354 240,354 237,330" fill="none" stroke="#efe6d3" stroke-width="6" stroke-linecap="round"/>
<polyline points="498,354 360,354 240,354 237,330" fill="none" stroke="#8a6a44" stroke-width="2" stroke-dasharray="2 5"/>
<polyline points="504,270 474,270" fill="none" stroke="#efe6d3" stroke-width="6" stroke-linecap="round"/>
<polyline points="504,270 474,270" fill="none" stroke="#8a6a44" stroke-width="2" stroke-dasharray="2 5"/>
<line x1="504" y1="174" x2="600" y2="174" stroke="#5a4632" stroke-width="2" stroke-dasharray="4 3"/>
<line x1="648" y1="174" x2="690" y2="174" stroke="#5a4632" stroke-width="2" stroke-dasharray="4 3"/>
<line x1="504" y1="258" x2="504" y2="174" stroke="#5a4632" stroke-width="2" stroke-dasharray="4 3"/>
<line x1="504" y1="306" x2="504" y2="282" stroke="#5a4632" stroke-width="2" stroke-dasharray="4 3"/>
<line x1="690" y1="246" x2="690" y2="174" stroke="#5a4632" stroke-width="2" stroke-dasharray="4 3"/>
<line x1="504" y1="306" x2="576" y2="306" stroke="#5a4632" stroke-width="2" stroke-dasharray="4 3"/>
<line x1="618" y1="306" x2="660" y2="306" stroke="#5a4632" stroke-width="2" stroke-dasharray="4 3"/>
<text x="597" y="322" font-size="10" fill="#5a4632" text-anchor="middle">portti</text>
<rect x="564" y="234" width="60" height="48" fill="#ddeec0" stroke="#5a4632" stroke-width="1.5" stroke-dasharray="3 2"/>
<line x1="576" y1="238" x2="576" y2="278" stroke="#7c8f63" stroke-width="1"/>
<line x1="588" y1="238" x2="588" y2="278" stroke="#7c8f63" stroke-width="1"/>
<line x1="600" y1="238" x2="600" y2="278" stroke="#7c8f63" stroke-width="1"/>
<line x1="612" y1="238" x2="612" y2="278" stroke="#7c8f63" stroke-width="1"/>
<text x="568" y="248" font-size="11" fill="#3a2f25" font-weight="bold">9</text>
<rect x="600" y="174" width="48" height="36" fill="#e8dcc0" stroke="#3a2f25" stroke-width="2"/>
<text x="624" y="197" font-size="14" fill="#3a2f25" font-weight="bold" text-anchor="middle">1</text>
<rect x="516" y="204" width="36" height="30" fill="#e8dcc0" stroke="#3a2f25" stroke-width="2"/>
<text x="534" y="224" font-size="14" fill="#3a2f25" font-weight="bold" text-anchor="middle">2</text>
<rect x="660" y="246" width="30" height="60" fill="#e8dcc0" stroke="#3a2f25" stroke-width="2"/>
<text x="675" y="281" font-size="14" fill="#3a2f25" font-weight="bold" text-anchor="middle">3</text>
<rect x="696" y="186" width="24" height="24" fill="#e8dcc0" stroke="#3a2f25" stroke-width="2"/>
<text x="708" y="203" font-size="14" fill="#3a2f25" font-weight="bold" text-anchor="middle">4</text>
<rect x="468" y="258" width="12" height="12" fill="#e8dcc0" stroke="#3a2f25" stroke-width="2"/>
<text x="474" y="269" font-size="14" fill="#3a2f25" font-weight="bold" text-anchor="middle">5</text>
<rect x="204" y="294" width="66" height="36" fill="#e8dcc0" stroke="#3a2f25" stroke-width="2"/>
<text x="237" y="317" font-size="14" fill="#3a2f25" font-weight="bold" text-anchor="middle">6</text>
<rect x="828" y="390" width="54" height="30" fill="#e8dcc0" stroke="#3a2f25" stroke-width="2"/>
<text x="855" y="410" font-size="14" fill="#3a2f25" font-weight="bold" text-anchor="middle">7</text>
<circle cx="648" cy="246" r="4.199999999999999" fill="#cfe3ea" stroke="#3a2f25" stroke-width="2"/>
<text x="648" y="250" font-size="10" fill="#3a2f25" text-anchor="middle">8</text>
<text x="360" y="346" font-size="10" fill="#8a3b2a" text-anchor="middle" font-style="italic">~68 m to tupa</text>
<line x1="552" y1="306" x2="552" y2="372" stroke="#8a3b2a" stroke-width="1.5"/>
<line x1="548" y1="306" x2="556" y2="306" stroke="#8a3b2a" stroke-width="1.5"/>
<line x1="548" y1="372" x2="556" y2="372" stroke="#8a3b2a" stroke-width="1.5"/>
<text x="560" y="343" font-size="10" fill="#8a3b2a" font-style="italic">~11 m gap</text>
<line x1="468" y1="150" x2="720" y2="150" stroke="#8a3b2a" stroke-width="1.5"/>
<line x1="468" y1="146" x2="468" y2="154" stroke="#8a3b2a" stroke-width="1.5"/>
<line x1="720" y1="146" x2="720" y2="154" stroke="#8a3b2a" stroke-width="1.5"/>
<text x="594" y="144" font-size="10" fill="#8a3b2a" text-anchor="middle" font-style="italic">~42 m core cluster</text>
<text x="60" y="80" font-size="11" fill="#6b5d4a" font-style="italic">↑ background / further away</text>
<text x="60" y="770" font-size="11" fill="#6b5d4a" font-style="italic">↓ foreground — camera / player approaches from here</text>
<line x1="60" y1="775" x2="180" y2="775" stroke="#3a2f25" stroke-width="2"/>
<line x1="60" y1="770" x2="60" y2="780" stroke="#3a2f25" stroke-width="2"/>
<line x1="180" y1="770" x2="180" y2="780" stroke="#3a2f25" stroke-width="2"/>
<text x="120" y="793" font-size="11" fill="#3a2f25" text-anchor="middle">20 m</text>
<text x="1220" y="100" font-size="14" fill="#3a2f25" font-weight="bold">Legend</text>
<rect x="1220" y="113" width="16" height="12" fill="#e8dcc0" stroke="#3a2f25" stroke-width="1" />
<text x="1244" y="124" font-size="11.5" fill="#3a2f25">1. Tupa — main house — 8×6 m</text>
<rect x="1220" y="131" width="16" height="12" fill="#e8dcc0" stroke="#3a2f25" stroke-width="1" />
<text x="1244" y="142" font-size="11.5" fill="#3a2f25">2. Aitta — storehouse (combined) — 6×5 m</text>
<rect x="1220" y="149" width="16" height="12" fill="#e8dcc0" stroke="#3a2f25" stroke-width="1" />
<text x="1244" y="160" font-size="11.5" fill="#3a2f25">3. Navetta — cowshed — 5×10 m</text>
<rect x="1220" y="167" width="16" height="12" fill="#e8dcc0" stroke="#3a2f25" stroke-width="1" />
<text x="1244" y="178" font-size="11.5" fill="#3a2f25">4. Savusauna — smoke sauna — edge of cluster, detached — 4×4 m</text>
<rect x="1220" y="185" width="16" height="12" fill="#e8dcc0" stroke="#3a2f25" stroke-width="1" />
<text x="1244" y="196" font-size="11.5" fill="#3a2f25">5. Käymälä — outhouse (huussi) — tucked to the side, off the main gate sightline, away from well — 2×2 m</text>
<rect x="1220" y="203" width="16" height="12" fill="#e8dcc0" stroke="#3a2f25" stroke-width="1" />
<text x="1244" y="214" font-size="11.5" fill="#3a2f25">6. Riihi — threshing barn — isolated, north side of the path, at the field edge — 11×6 m</text>
<rect x="1220" y="221" width="16" height="12" fill="#e8dcc0" stroke="#3a2f25" stroke-width="1" />
<text x="1244" y="232" font-size="11.5" fill="#3a2f25">7. Lato — hay barn — at field edge — 9×5 m</text>
<rect x="1220" y="239" width="16" height="12" fill="#cfe3ea" stroke="#3a2f25" stroke-width="1" />
<text x="1244" y="250" font-size="11.5" fill="#3a2f25">8. Kaivo — well</text>
<rect x="1220" y="257" width="16" height="12" fill="#ddeec0" stroke="#3a2f25" stroke-width="1" stroke-dasharray="3 2"/>
<text x="1244" y="268" font-size="11.5" fill="#3a2f25">9. Kasvimaa — vegetable garden — 10×8 m</text>
<text x="1220" y="298" font-size="12" fill="#3a2f25" font-weight="bold">Terrain</text>
<rect x="1220" y="307" width="16" height="12" fill="#dce8c8" stroke="#7c8f63" stroke-width="1" />
<text x="1244" y="318" font-size="11.5" fill="#3a2f25">Pellot — fields (rye/barley/oats/turnip)</text>
<rect x="1220" y="325" width="16" height="12" fill="#e3edd2" stroke="#9aab83" stroke-width="1" />
<text x="1244" y="336" font-size="11.5" fill="#3a2f25">Niitty — meadow / summer pasture</text>
<rect x="1220" y="343" width="16" height="12" fill="#9fb08a" stroke="#9fb08a" stroke-width="1" />
<text x="1244" y="354" font-size="11.5" fill="#3a2f25">Metsä — forest (koivu/mänty/kuusi)</text>
<line x1="1220" y1="367" x2="1236" y2="367" stroke="#5a4632" stroke-width="2" stroke-dasharray="4 3"/>
<text x="1244" y="372" font-size="11.5" fill="#3a2f25">Puuaita — fence (dashed)</text>
<line x1="1220" y1="385" x2="1236" y2="385" stroke="#8a6a44" stroke-width="2" stroke-dasharray="2 5"/>
<text x="1244" y="390" font-size="11.5" fill="#3a2f25">Polku — path (dashed, light casing)</text>
<line x1="1220" y1="403" x2="1236" y2="403" stroke="#8a3b2a" stroke-width="1.5" />
<text x="1244" y="408" font-size="11.5" fill="#3a2f25">Distance call-out (this iteration only)</text>
</svg>