<svg xmlns="http://www.w3.org/2000/svg" width="1310" height="540" font-family="Georgia, serif">
<rect width="1310" height="540" fill="#f5f0e6"/>
<text x="60" y="34" font-size="22" fill="#3a2f25" font-weight="bold">Umpipiha — farm layout, v5 (topdown schematic)</text>
<text x="60" y="56" font-size="13" fill="#6b5d4a">Smaller map, irregular field/niitty edges; käymälä by the navetta/niitty corner; gate path reaches the map edge.</text>
<rect x="60" y="90" width="870" height="390" fill="#9fb08a"/>
<polygon points="96,324 180,348 204,336 288,300 264,204 156,180 84,252" fill="#dce8c8" stroke="#7c8f63" stroke-width="1.5"/>
<text x="181.71428571428572" y="277.7142857142857" font-size="11" fill="#5a6b46" text-anchor="middle">Pelto — ruis (rye)</text>
<polygon points="564,252 636,234 684,324 636,384 588,372 540,336" fill="#dce8c8" stroke="#7c8f63" stroke-width="1.5"/>
<text x="612" y="300" font-size="11" fill="#5a6b46" text-anchor="middle">Pelto — kaura (oats)</text>
<polygon points="408,300 456,282 504,288 492,372 432,390 408,360" fill="#dce8c8" stroke="#7c8f63" stroke-width="1.5"/>
<text x="450" y="332" font-size="11" fill="#5a6b46" text-anchor="middle">Nauris</text>
<polygon points="720,324 804,312 888,360 864,456 780,480 696,396" fill="#dce8c8" stroke="#7c8f63" stroke-width="1.5"/>
<text x="792" y="388" font-size="11" fill="#5a6b46" text-anchor="middle">Pelto — ohra (barley)</text>
<polygon points="552,204 624,228 678,192 660,132 588,120 540,168" fill="#e3edd2" stroke="#9aab83" stroke-width="1.5"/>
<text x="606" y="174" font-size="11" fill="#5a6b46" text-anchor="middle">Niitty — kesälaidun (navetalta)</text>
<polyline points="396,240 360,276 300,324 240,372 228,480" fill="none" stroke="#efe6d3" stroke-width="6" stroke-linecap="round"/>
<polyline points="396,240 360,276 300,324 240,372 228,480" fill="none" stroke="#8a6a44" stroke-width="2" stroke-dasharray="2 5"/>
<polyline points="300,324 252,348 216,360" fill="none" stroke="#efe6d3" stroke-width="6" stroke-linecap="round"/>
<polyline points="300,324 252,348 216,360" fill="none" stroke="#8a6a44" stroke-width="2" stroke-dasharray="2 5"/>
<polyline points="510,174 528,174" fill="none" stroke="#efe6d3" stroke-width="6" stroke-linecap="round"/>
<polyline points="510,174 528,174" fill="none" stroke="#8a6a44" stroke-width="2" stroke-dasharray="2 5"/>
<line x1="324" y1="108" x2="420" y2="108" stroke="#5a4632" stroke-width="2" stroke-dasharray="4 3"/>
<line x1="468" y1="108" x2="510" y2="108" stroke="#5a4632" stroke-width="2" stroke-dasharray="4 3"/>
<line x1="324" y1="240" x2="324" y2="108" stroke="#5a4632" stroke-width="2" stroke-dasharray="4 3"/>
<line x1="510" y1="162" x2="510" y2="108" stroke="#5a4632" stroke-width="2" stroke-dasharray="4 3"/>
<line x1="324" y1="240" x2="396" y2="240" stroke="#5a4632" stroke-width="2" stroke-dasharray="4 3"/>
<line x1="438" y1="240" x2="480" y2="240" stroke="#5a4632" stroke-width="2" stroke-dasharray="4 3"/>
<text x="417" y="256" font-size="10" fill="#5a4632" text-anchor="middle">portti</text>
<rect x="384" y="168" width="60" height="48" fill="#ddeec0" stroke="#5a4632" stroke-width="1.5" stroke-dasharray="3 2"/>
<line x1="396" y1="172" x2="396" y2="212" stroke="#7c8f63" stroke-width="1"/>
<line x1="408" y1="172" x2="408" y2="212" stroke="#7c8f63" stroke-width="1"/>
<line x1="420" y1="172" x2="420" y2="212" stroke="#7c8f63" stroke-width="1"/>
<line x1="432" y1="172" x2="432" y2="212" stroke="#7c8f63" stroke-width="1"/>
<text x="388" y="182" font-size="11" fill="#3a2f25" font-weight="bold">9</text>
<rect x="420" y="108" width="48" height="36" fill="#e8dcc0" stroke="#3a2f25" stroke-width="2"/>
<text x="444" y="131" font-size="14" fill="#3a2f25" font-weight="bold" text-anchor="middle">1</text>
<rect x="336" y="138" width="36" height="30" fill="#e8dcc0" stroke="#3a2f25" stroke-width="2"/>
<text x="354" y="158" font-size="14" fill="#3a2f25" font-weight="bold" text-anchor="middle">2</text>
<rect x="480" y="180" width="30" height="60" fill="#e8dcc0" stroke="#3a2f25" stroke-width="2"/>
<text x="495" y="215" font-size="14" fill="#3a2f25" font-weight="bold" text-anchor="middle">3</text>
<rect x="516" y="120" width="24" height="24" fill="#e8dcc0" stroke="#3a2f25" stroke-width="2"/>
<text x="528" y="137" font-size="14" fill="#3a2f25" font-weight="bold" text-anchor="middle">4</text>
<rect x="522" y="174" width="12" height="12" fill="#e8dcc0" stroke="#3a2f25" stroke-width="2"/>
<text x="528" y="185" font-size="14" fill="#3a2f25" font-weight="bold" text-anchor="middle">5</text>
<rect x="144" y="336" width="66" height="36" fill="#e8dcc0" stroke="#3a2f25" stroke-width="2"/>
<text x="177" y="359" font-size="14" fill="#3a2f25" font-weight="bold" text-anchor="middle">6</text>
<rect x="696" y="270" width="54" height="30" fill="#e8dcc0" stroke="#3a2f25" stroke-width="2"/>
<text x="723" y="290" font-size="14" fill="#3a2f25" font-weight="bold" text-anchor="middle">7</text>
<circle cx="468" cy="180" r="4.199999999999999" fill="#cfe3ea" stroke="#3a2f25" stroke-width="2"/>
<text x="468" y="184" font-size="10" fill="#3a2f25" text-anchor="middle">8</text>
<text x="180" y="432" font-size="10" fill="#8a3b2a" text-anchor="middle" font-style="italic">~59 m to tupa</text>
<line x1="456" y1="240" x2="456" y2="282" stroke="#8a3b2a" stroke-width="1.5"/>
<line x1="452" y1="240" x2="460" y2="240" stroke="#8a3b2a" stroke-width="1.5"/>
<line x1="452" y1="282" x2="460" y2="282" stroke="#8a3b2a" stroke-width="1.5"/>
<text x="464" y="265" font-size="10" fill="#8a3b2a" font-style="italic">~7 m gap</text>
<line x1="336" y1="180" x2="534" y2="180" stroke="#8a3b2a" stroke-width="1.5"/>
<line x1="336" y1="176" x2="336" y2="184" stroke="#8a3b2a" stroke-width="1.5"/>
<line x1="534" y1="176" x2="534" y2="184" stroke="#8a3b2a" stroke-width="1.5"/>
<text x="432" y="174" font-size="10" fill="#8a3b2a" text-anchor="middle" font-style="italic">~33 m core cluster</text>
<text x="60" y="80" font-size="11" fill="#6b5d4a" font-style="italic">↑ background / further away</text>
<text x="60" y="500" font-size="11" fill="#6b5d4a" font-style="italic">↓ foreground — camera / player approaches from here</text>
<line x1="60" y1="505" x2="180" y2="505" stroke="#3a2f25" stroke-width="2"/>
<line x1="60" y1="500" x2="60" y2="510" stroke="#3a2f25" stroke-width="2"/>
<line x1="180" y1="500" x2="180" y2="510" stroke="#3a2f25" stroke-width="2"/>
<text x="120" y="523" font-size="11" fill="#3a2f25" text-anchor="middle">20 m</text>
<text x="950" y="100" font-size="14" fill="#3a2f25" font-weight="bold">Legend</text>
<rect x="950" y="113" width="16" height="12" fill="#e8dcc0" stroke="#3a2f25" stroke-width="1" />
<text x="974" y="124" font-size="11.5" fill="#3a2f25">1. Tupa — main house — 8×6 m</text>
<rect x="950" y="131" width="16" height="12" fill="#e8dcc0" stroke="#3a2f25" stroke-width="1" />
<text x="974" y="142" font-size="11.5" fill="#3a2f25">2. Aitta — storehouse (combined) — 6×5 m</text>
<rect x="950" y="149" width="16" height="12" fill="#e8dcc0" stroke="#3a2f25" stroke-width="1" />
<text x="974" y="160" font-size="11.5" fill="#3a2f25">3. Navetta — cowshed — 5×10 m</text>
<rect x="950" y="167" width="16" height="12" fill="#e8dcc0" stroke="#3a2f25" stroke-width="1" />
<text x="974" y="178" font-size="11.5" fill="#3a2f25">4. Savusauna — smoke sauna — edge of cluster, detached — 4×4 m</text>
<rect x="950" y="185" width="16" height="12" fill="#e8dcc0" stroke="#3a2f25" stroke-width="1" />
<text x="974" y="196" font-size="11.5" fill="#3a2f25">5. Käymälä — outhouse (huussi) — tucked into the navetta/niitty corner — 2×2 m</text>
<rect x="950" y="203" width="16" height="12" fill="#e8dcc0" stroke="#3a2f25" stroke-width="1" />
<text x="974" y="214" font-size="11.5" fill="#3a2f25">6. Riihi — threshing barn — close to the yard, a field directly north of it, forest on its other sides — 11×6 m</text>
<rect x="950" y="221" width="16" height="12" fill="#e8dcc0" stroke="#3a2f25" stroke-width="1" />
<text x="974" y="232" font-size="11.5" fill="#3a2f25">7. Lato — hay barn — at the kaura field edge — 9×5 m</text>
<rect x="950" y="239" width="16" height="12" fill="#cfe3ea" stroke="#3a2f25" stroke-width="1" />
<text x="974" y="250" font-size="11.5" fill="#3a2f25">8. Kaivo — well</text>
<rect x="950" y="257" width="16" height="12" fill="#ddeec0" stroke="#3a2f25" stroke-width="1" stroke-dasharray="3 2"/>
<text x="974" y="268" font-size="11.5" fill="#3a2f25">9. Kasvimaa — vegetable garden — 10×8 m</text>
<text x="950" y="298" font-size="12" fill="#3a2f25" font-weight="bold">Terrain</text>
<rect x="950" y="307" width="16" height="12" fill="#dce8c8" stroke="#7c8f63" stroke-width="1" />
<text x="974" y="318" font-size="11.5" fill="#3a2f25">Pellot — fields (rye/barley/oats/turnip)</text>
<rect x="950" y="325" width="16" height="12" fill="#e3edd2" stroke="#9aab83" stroke-width="1" />
<text x="974" y="336" font-size="11.5" fill="#3a2f25">Niitty — meadow / summer pasture</text>
<rect x="950" y="343" width="16" height="12" fill="#9fb08a" stroke="#9fb08a" stroke-width="1" />
<text x="974" y="354" font-size="11.5" fill="#3a2f25">Metsä — forest (koivu/mänty/kuusi)</text>
<line x1="950" y1="367" x2="966" y2="367" stroke="#5a4632" stroke-width="2" stroke-dasharray="4 3"/>
<text x="974" y="372" font-size="11.5" fill="#3a2f25">Puuaita — fence (dashed)</text>
<line x1="950" y1="385" x2="966" y2="385" stroke="#8a6a44" stroke-width="2" stroke-dasharray="2 5"/>
<text x="974" y="390" font-size="11.5" fill="#3a2f25">Polku — path (dashed, light casing)</text>
<line x1="950" y1="403" x2="966" y2="403" stroke="#8a3b2a" stroke-width="1.5" />
<text x="974" y="408" font-size="11.5" fill="#3a2f25">Distance call-out (this iteration only)</text>
</svg>